<?xml version="1.0" encoding="utf-8"?>
<!-- Generator: Adobe Illustrator 15.0.0, SVG Export Plug-In . SVG Version: 6.00 Build 0)  -->
<!DOCTYPE svg PUBLIC "-//W3C//DTD SVG 1.1//EN" "http://www.w3.org/Graphics/SVG/1.1/DTD/svg11.dtd">
<svg version="1.1" id="bez_1_" xmlns="http://www.w3.org/2000/svg" xmlns:xlink="http://www.w3.org/1999/xlink" x="0px" y="0px"
	 width="1683.84px" height="2381.04px" viewBox="0 0 1683.84 2381.04" enable-background="new 0 0 1683.84 2381.04"
	 xml:space="preserve">

<g id="_x31__1_">
	<g id="Shape_1">
		<g>
			<rect x="963.886" y="950.159" fill-rule="evenodd" clip-rule="evenodd" fill="#CC2229" width="86.435" height="29.754"/>
		</g>
	</g>
	<g id="_x32_009">
		<g>
			<path fill-rule="evenodd" clip-rule="evenodd" fill="#FFFFFF" d="M985.239,965.861c2.4-2.208,2.856-3.696,2.856-5.329
				c0-3.12-2.664-5.112-6.528-5.112c-3.312,0-5.688,1.393-6.961,3.504l3.528,1.968c0.673-1.08,1.776-1.632,3-1.632
				c1.44,0,2.161,0.648,2.161,1.728c0,0.696-0.192,1.464-1.536,2.712l-6.289,5.88v2.976h13.081v-3.768h-6.48L985.239,965.861z
				 M998.559,955.42c-4.297,0-7.417,3.192-7.417,8.737s3.12,8.736,7.417,8.736c4.271,0,7.393-3.192,7.393-8.736
				S1002.831,955.42,998.559,955.42z M998.559,969.005c-1.536,0-2.641-1.32-2.641-4.848c0-3.528,1.104-4.848,2.641-4.848
				c1.512,0,2.616,1.32,2.616,4.848C1001.175,967.685,1000.071,969.005,998.559,969.005z M1016.199,955.42
				c-4.296,0-7.416,3.192-7.416,8.737s3.12,8.736,7.416,8.736c4.272,0,7.393-3.192,7.393-8.736S1020.471,955.42,1016.199,955.42z
				 M1016.199,969.005c-1.536,0-2.64-1.32-2.64-4.848c0-3.528,1.104-4.848,2.64-4.848c1.512,0,2.616,1.32,2.616,4.848
				C1018.815,967.685,1017.71,969.005,1016.199,969.005z M1032.567,955.42c-3.648,0-6.577,2.232-6.577,5.736
				c0,3.216,2.616,5.305,5.785,5.305c1.584,0,2.832-0.433,3.768-1.224c-0.264,2.544-1.848,3.888-4.225,3.888
				c-1.079,0-2.136-0.192-3.096-0.864l-1.728,3.408c1.224,0.792,3.048,1.224,4.92,1.224c5.328,0,8.952-3.336,8.952-9.192
				C1040.367,958.252,1037.294,955.42,1032.567,955.42z M1032.903,963.053c-1.368,0-2.305-0.816-2.305-2.112
				c0-1.32,0.937-2.136,2.28-2.136c1.44,0,2.353,0.864,2.353,2.112C1035.231,962.188,1034.271,963.053,1032.903,963.053z"/>
		</g>
	</g>
</g>

<g id="_x32__1_">
	<g id="Shape_2">
		<g>
			<polygon fill-rule="evenodd" clip-rule="evenodd" fill="#CC2229" points="1071.828,986.883 1000.776,987.01 989.588,1001.353 
				1000.98,1016.967 1071.792,1016.64 1083.096,1001.433 			"/>
		</g>
	</g>
	<g id="_x31_962">
		<g>
			<path fill-rule="evenodd" clip-rule="evenodd" fill="#FFFFFF" d="M1006.769,996.39h3.12v13.128h4.753v-16.801h-7.873V996.39z
				 M1024.505,992.382c-3.647,0-6.576,2.232-6.576,5.736c0,3.216,2.616,5.305,5.784,5.305c1.584,0,2.832-0.433,3.769-1.225
				c-0.265,2.544-1.848,3.888-4.225,3.888c-1.08,0-2.136-0.192-3.096-0.864l-1.729,3.408c1.225,0.792,3.049,1.224,4.921,1.224
				c5.328,0,8.952-3.336,8.952-9.193C1032.306,995.214,1029.234,992.382,1024.505,992.382z M1024.841,1000.014
				c-1.368,0-2.304-0.816-2.304-2.112c0-1.32,0.936-2.136,2.28-2.136c1.439,0,2.352,0.864,2.352,2.112
				C1027.169,999.15,1026.209,1000.014,1024.841,1000.014z M1043.729,998.814c-1.583,0-2.855,0.432-3.792,1.248
				c0.24-2.568,1.849-3.912,4.248-3.912c1.08,0,2.137,0.192,3.097,0.864l1.729-3.408c-1.225-0.792-3.049-1.224-4.944-1.224
				c-5.305,0-8.929,3.336-8.929,9.192c0,5.448,3.071,8.281,7.776,8.281c3.672,0,6.601-2.232,6.601-5.736
				C1049.514,1000.902,1046.898,998.814,1043.729,998.814z M1042.625,1006.471c-1.44,0-2.353-0.864-2.353-2.112
				c0-1.272,0.96-2.136,2.328-2.136s2.305,0.816,2.305,2.112C1044.906,1005.655,1043.969,1006.471,1042.625,1006.471z
				 M1058.417,1005.75l3.168-2.928c2.4-2.208,2.856-3.696,2.856-5.328c0-3.12-2.665-5.112-6.529-5.112
				c-3.312,0-5.688,1.392-6.96,3.504l3.528,1.968c0.672-1.081,1.775-1.632,3-1.632c1.44,0,2.16,0.648,2.16,1.728
				c0,0.696-0.192,1.464-1.536,2.712l-6.288,5.88v2.976h13.08v-3.768H1058.417z"/>
		</g>
	</g>
</g>
<g id="_x33__1_">
	<g id="Shape_1_1_">
		<g>
			<rect x="877.726" y="1137.599" fill-rule="evenodd" clip-rule="evenodd" fill="#CC2229" width="86.435" height="29.754"/>
		</g>
	</g>
	<g id="_x32_008">
		<g>
			<path fill-rule="evenodd" clip-rule="evenodd" fill="#FFFFFF" d="M897.878,1154.501c2.4-2.208,2.856-3.696,2.856-5.329
				c0-3.121-2.664-5.113-6.528-5.113c-3.312,0-5.688,1.393-6.96,3.505l3.528,1.968c0.672-1.08,1.775-1.632,3-1.632
				c1.439,0,2.16,0.648,2.16,1.728c0,0.696-0.192,1.464-1.536,2.712l-6.289,5.88v2.977h13.081v-3.769h-6.48L897.878,1154.501z
				 M911.199,1144.06c-4.296,0-7.416,3.192-7.416,8.737c0,5.544,3.12,8.736,7.416,8.736c4.272,0,7.393-3.192,7.393-8.736
				C918.591,1147.252,915.471,1144.06,911.199,1144.06z M911.199,1157.645c-1.536,0-2.64-1.32-2.64-4.848
				c0-3.528,1.104-4.849,2.64-4.849c1.512,0,2.616,1.32,2.616,4.849C913.815,1156.325,912.71,1157.645,911.199,1157.645z
				 M928.838,1144.06c-4.296,0-7.416,3.192-7.416,8.737c0,5.544,3.12,8.736,7.416,8.736c4.272,0,7.393-3.192,7.393-8.736
				C936.231,1147.252,933.111,1144.06,928.838,1144.06z M928.838,1157.645c-1.535,0-2.64-1.32-2.64-4.848
				c0-3.528,1.104-4.849,2.64-4.849c1.513,0,2.616,1.32,2.616,4.849C931.455,1156.325,930.351,1157.645,928.838,1157.645z
				 M951.159,1152.341c1.129-0.792,1.801-1.944,1.801-3.384c0-2.976-2.736-4.897-6.696-4.897c-3.961,0-6.697,1.921-6.697,4.897
				c0,1.44,0.673,2.592,1.801,3.384c-1.513,0.864-2.4,2.184-2.4,3.912c0,3.216,2.952,5.28,7.297,5.28
				c4.344,0,7.296-2.064,7.296-5.28C953.559,1154.524,952.671,1153.205,951.159,1152.341z M946.263,1147.396
				c1.176,0,2.016,0.647,2.016,1.776c0,1.104-0.816,1.752-2.016,1.752c-1.2,0-1.992-0.648-1.992-1.752
				C944.271,1148.044,945.086,1147.396,946.263,1147.396z M946.263,1158.197c-1.513,0-2.521-0.792-2.521-2.088
				s1.008-2.088,2.521-2.088c1.512,0,2.52,0.792,2.52,2.088S947.775,1158.197,946.263,1158.197z"/>
		</g>
	</g>
</g>
<g id="_x34__1_">
	<g id="Shape_1_2_">
		<g>
			<rect x="667.249" y="1001.148" fill-rule="evenodd" clip-rule="evenodd" fill="#FFFFFF" width="86.435" height="29.754"/>
		</g>
	</g>
	<g id="_x32_004">
		<g>
			<path fill-rule="evenodd" clip-rule="evenodd" fill="#CC2229" d="M687.162,1018.05c2.4-2.208,2.856-3.696,2.856-5.328
				c0-3.121-2.664-5.113-6.528-5.113c-3.312,0-5.688,1.392-6.96,3.504l3.528,1.968c0.672-1.081,1.776-1.632,3-1.632
				c1.44,0,2.16,0.647,2.16,1.728c0,0.696-0.192,1.464-1.536,2.712l-6.288,5.88v2.976h13.081v-3.768h-6.48L687.162,1018.05z
				 M700.481,1007.609c-4.296,0-7.417,3.192-7.417,8.737s3.12,8.736,7.417,8.736c4.272,0,7.393-3.192,7.393-8.736
				S704.754,1007.609,700.481,1007.609z M700.481,1021.194c-1.536,0-2.64-1.32-2.64-4.848s1.104-4.849,2.64-4.849
				c1.512,0,2.616,1.32,2.616,4.849S701.994,1021.194,700.481,1021.194z M718.122,1007.609c-4.296,0-7.417,3.192-7.417,8.737
				s3.12,8.736,7.417,8.736c4.272,0,7.392-3.192,7.392-8.736S722.394,1007.609,718.122,1007.609z M718.122,1021.194
				c-1.536,0-2.641-1.32-2.641-4.848s1.104-4.849,2.641-4.849c1.512,0,2.616,1.32,2.616,4.849S719.633,1021.194,718.122,1021.194z
				 M741.69,1017.762v-2.856h-4.488v2.856h-3.408l6.84-9.816h-4.92l-7.537,10.489v3.096h8.88v3.216h4.633v-3.216h2.496v-3.768
				H741.69z"/>
		</g>
	</g>
</g>
<g id="_x36__1_">
	<g id="Shape_1_3_">
		<g>
			<rect x="780.619" y="991.437" fill-rule="evenodd" clip-rule="evenodd" fill="#FFFFFF" width="86.435" height="29.754"/>
		</g>
	</g>
	<g id="_x32_009_1_">
		<g>
			<path fill-rule="evenodd" clip-rule="evenodd" fill="#CC2229" d="M801.732,1008.339c2.4-2.208,2.856-3.696,2.856-5.328
				c0-3.12-2.664-5.112-6.528-5.112c-3.312,0-5.688,1.392-6.96,3.504l3.528,1.968c0.672-1.08,1.776-1.632,3-1.632
				c1.44,0,2.16,0.648,2.16,1.728c0,0.696-0.192,1.464-1.536,2.712l-6.289,5.881v2.976h13.081v-3.769h-6.48L801.732,1008.339z
				 M815.052,997.898c-4.296,0-7.417,3.192-7.417,8.736c0,5.544,3.12,8.737,7.417,8.737c4.272,0,7.392-3.192,7.392-8.737
				C822.444,1001.091,819.324,997.898,815.052,997.898z M815.052,1011.483c-1.536,0-2.641-1.32-2.641-4.849s1.104-4.848,2.641-4.848
				c1.512,0,2.616,1.32,2.616,4.848S816.564,1011.483,815.052,1011.483z M832.692,997.898c-4.296,0-7.417,3.192-7.417,8.736
				c0,5.544,3.12,8.737,7.417,8.737c4.272,0,7.393-3.192,7.393-8.737C840.084,1001.091,836.964,997.898,832.692,997.898z
				 M832.692,1011.483c-1.536,0-2.64-1.32-2.64-4.849s1.104-4.848,2.64-4.848c1.512,0,2.616,1.32,2.616,4.848
				S834.204,1011.483,832.692,1011.483z M849.06,997.898c-3.648,0-6.577,2.232-6.577,5.736c0,3.216,2.616,5.304,5.785,5.304
				c1.584,0,2.832-0.432,3.768-1.224c-0.264,2.544-1.848,3.889-4.224,3.889c-1.08,0-2.137-0.192-3.097-0.864l-1.728,3.408
				c1.224,0.792,3.048,1.225,4.92,1.225c5.328,0,8.953-3.336,8.953-9.193C856.861,1000.73,853.789,997.898,849.06,997.898z
				 M849.396,1005.531c-1.368,0-2.305-0.816-2.305-2.112c0-1.32,0.937-2.136,2.28-2.136c1.44,0,2.353,0.864,2.353,2.112
				C851.724,1004.667,850.764,1005.531,849.396,1005.531z"/>
		</g>
	</g>
</g>
<g id="_x35__1_">
	<g id="Shape_1_4_">
		<g>
			<rect x="710.207" y="968.748" fill-rule="evenodd" clip-rule="evenodd" fill="#FFFFFF" width="95.079" height="29.754"/>
		</g>
	</g>
	<g id="_x32_000е">
		<g>
			<path fill-rule="evenodd" clip-rule="evenodd" fill="#CC2229" d="M724.842,985.65c2.4-2.208,2.856-3.696,2.856-5.329
				c0-3.12-2.664-5.112-6.528-5.112c-3.312,0-5.688,1.392-6.96,3.504l3.528,1.968c0.672-1.081,1.776-1.632,3-1.632
				c1.44,0,2.16,0.648,2.16,1.728c0,0.696-0.192,1.464-1.536,2.712l-6.289,5.881v2.976h13.081v-3.768h-6.48L724.842,985.65z
				 M738.162,975.209c-4.296,0-7.417,3.192-7.417,8.737s3.12,8.736,7.417,8.736c4.272,0,7.392-3.192,7.392-8.736
				S742.434,975.209,738.162,975.209z M738.162,988.794c-1.536,0-2.641-1.32-2.641-4.848c0-3.528,1.104-4.849,2.641-4.849
				c1.512,0,2.616,1.32,2.616,4.849C740.778,987.474,739.673,988.794,738.162,988.794z M755.801,975.209
				c-4.296,0-7.416,3.192-7.416,8.737s3.12,8.736,7.416,8.736c4.272,0,7.393-3.192,7.393-8.736S760.074,975.209,755.801,975.209z
				 M755.801,988.794c-1.536,0-2.64-1.32-2.64-4.848c0-3.528,1.104-4.849,2.64-4.849c1.512,0,2.616,1.32,2.616,4.849
				C758.417,987.474,757.313,988.794,755.801,988.794z M773.441,975.209c-4.296,0-7.416,3.192-7.416,8.737s3.12,8.736,7.416,8.736
				c4.272,0,7.393-3.192,7.393-8.736S777.713,975.209,773.441,975.209z M773.441,988.794c-1.536,0-2.64-1.32-2.64-4.848
				c0-3.528,1.104-4.849,2.64-4.849c1.513,0,2.617,1.32,2.617,4.849C776.058,987.474,774.954,988.794,773.441,988.794z
				 M797.562,985.866c0-4.296-3.12-6.745-6.96-6.745c-4.104,0-7.152,2.785-7.152,6.697c0,3.888,3,6.744,7.632,6.744
				c2.472,0,4.296-0.72,5.544-2.112l-2.4-2.496c-0.888,0.768-1.729,1.128-3,1.128c-1.68,0-2.808-0.768-3.192-2.088h9.457
				C797.514,986.634,797.562,986.202,797.562,985.866z M787.961,984.594c0.264-1.368,1.248-2.232,2.664-2.232
				s2.424,0.864,2.664,2.232H787.961z"/>
		</g>
	</g>
</g>
<g id="_x33_2_1_">
	<g id="Shape_1_5_">
		<g>
			<rect x="740.552" y="1743.821" fill-rule="evenodd" clip-rule="evenodd" fill="#FFFFFF" width="95.078" height="29.755"/>
		</g>
	</g>
	<g id="_x32_000е_1_">
		<g>
			<path fill-rule="evenodd" clip-rule="evenodd" fill="#CC2229" d="M755.187,1760.724c2.4-2.208,2.856-3.696,2.856-5.328
				c0-3.12-2.664-5.112-6.528-5.112c-3.312,0-5.688,1.392-6.96,3.504l3.528,1.968c0.672-1.08,1.776-1.632,3-1.632
				c1.44,0,2.16,0.648,2.16,1.729c0,0.695-0.192,1.464-1.536,2.712l-6.289,5.88v2.977h13.081v-3.769h-6.48L755.187,1760.724z
				 M768.506,1750.283c-4.296,0-7.416,3.191-7.416,8.736c0,5.544,3.12,8.736,7.416,8.736c4.272,0,7.393-3.192,7.393-8.736
				C775.899,1753.475,772.779,1750.283,768.506,1750.283z M768.506,1763.868c-1.536,0-2.64-1.32-2.64-4.849s1.104-4.849,2.64-4.849
				c1.512,0,2.616,1.32,2.616,4.849S770.019,1763.868,768.506,1763.868z M786.146,1750.283c-4.296,0-7.417,3.191-7.417,8.736
				c0,5.544,3.12,8.736,7.417,8.736c4.272,0,7.392-3.192,7.392-8.736C793.539,1753.475,790.419,1750.283,786.146,1750.283z
				 M786.146,1763.868c-1.536,0-2.64-1.32-2.64-4.849s1.104-4.849,2.64-4.849c1.512,0,2.616,1.32,2.616,4.849
				S787.658,1763.868,786.146,1763.868z M803.787,1750.283c-4.296,0-7.417,3.191-7.417,8.736c0,5.544,3.121,8.736,7.417,8.736
				c4.272,0,7.392-3.192,7.392-8.736C811.179,1753.475,808.059,1750.283,803.787,1750.283z M803.787,1763.868
				c-1.536,0-2.641-1.32-2.641-4.849s1.104-4.849,2.641-4.849c1.512,0,2.616,1.32,2.616,4.849S805.298,1763.868,803.787,1763.868z
				 M827.907,1760.939c0-4.296-3.12-6.744-6.96-6.744c-4.104,0-7.152,2.784-7.152,6.696c0,3.888,3,6.744,7.632,6.744
				c2.472,0,4.296-0.72,5.544-2.112l-2.4-2.496c-0.888,0.769-1.729,1.128-3,1.128c-1.68,0-2.808-0.768-3.192-2.088h9.457
				C827.859,1761.707,827.907,1761.275,827.907,1760.939z M818.306,1759.667c0.264-1.368,1.248-2.231,2.664-2.231
				s2.424,0.863,2.664,2.231H818.306z"/>
		</g>
	</g>
</g>
<g id="_x37__1_">
	<g id="Shape_5_copy_5">
		<g>
			<path fill-rule="evenodd" clip-rule="evenodd" fill="#CC2229" d="M824.646,911.178h-67.773c-7.953,0-14.4,6.447-14.4,14.4v0.338
				c0,7.953,6.447,14.4,14.4,14.4h67.773c7.953,0,14.4-6.447,14.4-14.4v-0.338C839.046,917.625,832.599,911.178,824.646,911.178z"/>
		</g>
	</g>
	<g id="_x31_990е">
		<g>
			<path fill-rule="evenodd" clip-rule="evenodd" fill="#FFFFFF" d="M752.203,920.435h3.121v13.128h4.752v-16.801h-7.873V920.435z
				 M769.939,916.427c-3.648,0-6.576,2.232-6.576,5.736c0,3.216,2.616,5.304,5.784,5.304c1.584,0,2.833-0.432,3.768-1.224
				c-0.264,2.544-1.848,3.888-4.224,3.888c-1.08,0-2.136-0.192-3.096-0.864l-1.728,3.408c1.224,0.792,3.048,1.224,4.92,1.224
				c5.328,0,8.953-3.336,8.953-9.192C777.74,919.259,774.668,916.427,769.939,916.427z M770.276,924.059
				c-1.368,0-2.304-0.816-2.304-2.112c0-1.32,0.936-2.136,2.28-2.136c1.44,0,2.352,0.864,2.352,2.112
				C772.604,923.195,771.644,924.059,770.276,924.059z M786.715,916.427c-3.648,0-6.576,2.232-6.576,5.736
				c0,3.216,2.616,5.304,5.784,5.304c1.584,0,2.832-0.432,3.768-1.224c-0.264,2.544-1.848,3.888-4.224,3.888
				c-1.08,0-2.136-0.192-3.096-0.864l-1.728,3.408c1.224,0.792,3.048,1.224,4.92,1.224c5.328,0,8.952-3.336,8.952-9.192
				C794.516,919.259,791.443,916.427,786.715,916.427z M787.051,924.059c-1.368,0-2.304-0.816-2.304-2.112
				c0-1.32,0.936-2.136,2.28-2.136c1.44,0,2.352,0.864,2.352,2.112C789.379,923.195,788.419,924.059,787.051,924.059z
				 M804.763,916.427c-4.296,0-7.417,3.192-7.417,8.736s3.12,8.736,7.417,8.736c4.272,0,7.393-3.192,7.393-8.736
				S809.035,916.427,804.763,916.427z M804.763,930.012c-1.536,0-2.64-1.32-2.64-4.849s1.104-4.849,2.64-4.849
				c1.512,0,2.616,1.32,2.616,4.849S806.275,930.012,804.763,930.012z M828.883,927.083c0-4.296-3.12-6.745-6.96-6.745
				c-4.104,0-7.152,2.784-7.152,6.696c0,3.888,3,6.745,7.632,6.745c2.473,0,4.296-0.72,5.544-2.112l-2.4-2.496
				c-0.888,0.768-1.728,1.128-3,1.128c-1.68,0-2.808-0.768-3.192-2.088h9.457C828.835,927.851,828.883,927.419,828.883,927.083z
				 M819.283,925.811c0.264-1.368,1.248-2.232,2.664-2.232s2.424,0.864,2.664,2.232H819.283z"/>
		</g>
	</g>
</g>
<g id="_x38__1_">
	<g id="Shape_1_copy_16">
		<g>
			<polygon fill-rule="evenodd" clip-rule="evenodd" fill="#CC2229" points="851.299,1244.78 832.707,1274.534 919.142,1274.534 
				937.735,1244.78 			"/>
		</g>
	</g>
	<g id="_x32_014">
		<g>
			<path fill-rule="evenodd" clip-rule="evenodd" fill="#FFFFFF" d="M864.976,1261.059c2.399-2.208,2.855-3.696,2.855-5.328
				c0-3.12-2.664-5.112-6.528-5.112c-3.312,0-5.688,1.392-6.96,3.504l3.528,1.968c0.672-1.08,1.776-1.632,3-1.632
				c1.439,0,2.16,0.648,2.16,1.729c0,0.696-0.192,1.464-1.536,2.712l-6.288,5.881v2.976h13.08v-3.769h-6.48L864.976,1261.059z
				 M878.295,1250.618c-4.296,0-7.416,3.192-7.416,8.736s3.12,8.736,7.416,8.736c4.272,0,7.393-3.192,7.393-8.736
				S882.568,1250.618,878.295,1250.618z M878.295,1264.203c-1.536,0-2.64-1.32-2.64-4.849s1.104-4.849,2.64-4.849
				c1.512,0,2.616,1.32,2.616,4.849S879.807,1264.203,878.295,1264.203z M887.847,1254.626h3.12v13.129h4.752v-16.801h-7.872
				V1254.626z M912.784,1260.771v-2.856h-4.488v2.856h-3.408l6.841-9.816h-4.921l-7.536,10.488v3.097h8.881v3.216h4.632v-3.216
				h2.496v-3.769H912.784z"/>
		</g>
	</g>
</g>
<g id="_x31_3_1_">
	<g id="Shape_1_6_">
		<g>
			<rect x="673.486" y="1175.999" fill-rule="evenodd" clip-rule="evenodd" fill="#CC2229" width="86.435" height="29.754"/>
		</g>
	</g>
	<g id="_x32_008_1_">
		<g>
			<path fill-rule="evenodd" clip-rule="evenodd" fill="#FFFFFF" d="M693.639,1192.9c2.4-2.208,2.856-3.696,2.856-5.328
				c0-3.12-2.664-5.112-6.528-5.112c-3.312,0-5.688,1.392-6.96,3.504l3.528,1.968c0.672-1.08,1.776-1.632,3-1.632
				c1.44,0,2.16,0.648,2.16,1.728c0,0.696-0.192,1.464-1.536,2.712l-6.289,5.881v2.976h13.081v-3.768h-6.48L693.639,1192.9z
				 M706.959,1182.46c-4.296,0-7.417,3.192-7.417,8.736c0,5.545,3.12,8.737,7.417,8.737c4.272,0,7.392-3.192,7.392-8.737
				C714.351,1185.652,711.231,1182.46,706.959,1182.46z M706.959,1196.045c-1.536,0-2.64-1.32-2.64-4.849
				c0-3.528,1.104-4.848,2.64-4.848c1.512,0,2.616,1.32,2.616,4.848C709.575,1194.725,708.471,1196.045,706.959,1196.045z
				 M724.599,1182.46c-4.296,0-7.417,3.192-7.417,8.736c0,5.545,3.12,8.737,7.417,8.737c4.272,0,7.393-3.192,7.393-8.737
				C731.991,1185.652,728.871,1182.46,724.599,1182.46z M724.599,1196.045c-1.536,0-2.64-1.32-2.64-4.849
				c0-3.528,1.104-4.848,2.64-4.848c1.512,0,2.616,1.32,2.616,4.848C727.215,1194.725,726.111,1196.045,724.599,1196.045z
				 M748.167,1192.612v-2.856h-4.488v2.856h-3.408l6.84-9.816h-4.92l-7.536,10.489v3.096h8.88v3.216h4.632v-3.216h2.496v-3.769
				H748.167z"/>
		</g>
	</g>
</g>
<g id="_x31_1_1_">
	<g id="Shape_1_copy_9">
		<g>
			<polygon fill-rule="evenodd" clip-rule="evenodd" fill="#CC2229" points="754.1,1025.42 735.507,1055.175 821.942,1055.175 
				840.535,1025.42 			"/>
		</g>
	</g>
	<g id="_x32_014_1_">
		<g>
			<path fill-rule="evenodd" clip-rule="evenodd" fill="#FFFFFF" d="M768.256,1041.698c2.4-2.208,2.856-3.696,2.856-5.328
				c0-3.12-2.664-5.112-6.528-5.112c-3.312,0-5.688,1.392-6.96,3.504l3.528,1.968c0.672-1.08,1.776-1.632,3-1.632
				c1.44,0,2.16,0.648,2.16,1.729c0,0.696-0.192,1.464-1.536,2.712l-6.288,5.88v2.976h13.081v-3.768h-6.48L768.256,1041.698z
				 M781.576,1031.258c-4.296,0-7.417,3.192-7.417,8.737c0,5.544,3.12,8.736,7.417,8.736c4.272,0,7.393-3.192,7.393-8.736
				C788.968,1034.45,785.848,1031.258,781.576,1031.258z M781.576,1044.843c-1.536,0-2.64-1.32-2.64-4.848
				c0-3.528,1.104-4.848,2.64-4.848c1.512,0,2.616,1.32,2.616,4.848C784.192,1043.522,783.087,1044.843,781.576,1044.843z
				 M791.127,1035.266h3.12v13.129H799v-16.801h-7.873V1035.266z M816.064,1041.411v-2.856h-4.488v2.856h-3.408l6.84-9.817h-4.92
				l-7.536,10.488v3.097h8.88v3.216h4.632v-3.216h2.496v-3.768H816.064z"/>
		</g>
	</g>
</g>
<g id="_x39__1_">
	<g id="Shape_1_copy_10">
		<g>
			<polygon fill-rule="evenodd" clip-rule="evenodd" fill="#CC2229" points="746.66,1203.98 728.067,1233.734 814.502,1233.734 
				833.095,1203.98 			"/>
		</g>
	</g>
	<g id="_x32_017">
		<g>
			<path fill-rule="evenodd" clip-rule="evenodd" fill="#FFFFFF" d="M761.083,1220.273c2.4-2.208,2.856-3.696,2.856-5.328
				c0-3.12-2.664-5.112-6.528-5.112c-3.312,0-5.688,1.392-6.96,3.504l3.528,1.968c0.672-1.08,1.776-1.632,3-1.632
				c1.44,0,2.16,0.648,2.16,1.729c0,0.696-0.192,1.464-1.536,2.712l-6.288,5.881v2.976h13.081v-3.769h-6.48L761.083,1220.273z
				 M774.403,1209.833c-4.296,0-7.416,3.192-7.416,8.736s3.12,8.736,7.416,8.736c4.272,0,7.393-3.192,7.393-8.736
				S778.675,1209.833,774.403,1209.833z M774.403,1223.418c-1.536,0-2.64-1.32-2.64-4.849s1.104-4.849,2.64-4.849
				c1.512,0,2.617,1.32,2.617,4.849S775.915,1223.418,774.403,1223.418z M783.955,1213.841h3.12v13.129h4.752v-16.801h-7.873
				V1213.841z M795.283,1210.169v6.36h4.056v-2.592h4.417l-5.665,13.032h5.185l5.928-13.824v-2.977H795.283z"/>
		</g>
	</g>
</g>
<g id="_x31_2_1_">
	<g id="Shape_1_copy_11">
		<g>
			<polygon fill-rule="evenodd" clip-rule="evenodd" fill="#CC2229" points="715.459,1276.94 696.867,1306.694 783.302,1306.694 
				801.895,1276.94 			"/>
		</g>
	</g>
	<g id="_x32_014_2_">
		<g>
			<path fill-rule="evenodd" clip-rule="evenodd" fill="#FFFFFF" d="M728.105,1294.188c2.4-2.208,2.855-3.696,2.855-5.328
				c0-3.12-2.664-5.112-6.528-5.112c-3.312,0-5.688,1.392-6.96,3.504l3.528,1.968c0.672-1.08,1.776-1.632,3-1.632
				c1.44,0,2.16,0.648,2.16,1.729c0,0.695-0.192,1.464-1.536,2.712l-6.289,5.88v2.977h13.081v-3.769h-6.48L728.105,1294.188z
				 M741.425,1283.748c-4.296,0-7.417,3.191-7.417,8.736c0,5.544,3.12,8.736,7.417,8.736c4.272,0,7.392-3.192,7.392-8.736
				C748.817,1286.939,745.697,1283.748,741.425,1283.748z M741.425,1297.332c-1.536,0-2.641-1.319-2.641-4.848
				s1.104-4.849,2.641-4.849c1.512,0,2.616,1.32,2.616,4.849S742.937,1297.332,741.425,1297.332z M750.976,1287.756h3.12v13.129
				h4.752v-16.801h-7.873V1287.756z M775.913,1293.9v-2.856h-4.488v2.856h-3.409l6.841-9.816h-4.92l-7.537,10.488v3.096h8.88v3.217
				h4.633v-3.217h2.496v-3.768H775.913z"/>
		</g>
	</g>
</g>
<g id="_x31_0_1_">
	<g id="Shape_1_copy_15">
		<g>
			<polygon fill-rule="evenodd" clip-rule="evenodd" fill="#FFFFFF" points="759.14,1243.34 740.547,1273.095 826.982,1273.095 
				845.575,1243.34 			"/>
		</g>
	</g>
	<g id="_x32_017_1_">
		<g>
			<path fill-rule="evenodd" clip-rule="evenodd" fill="#CC2229" d="M773.776,1259.858c2.4-2.208,2.856-3.696,2.856-5.328
				c0-3.12-2.664-5.112-6.528-5.112c-3.312,0-5.688,1.393-6.96,3.504l3.528,1.969c0.672-1.08,1.776-1.633,3-1.633
				c1.44,0,2.16,0.648,2.16,1.729c0,0.696-0.192,1.464-1.536,2.712l-6.288,5.881v2.976h13.081v-3.768h-6.48L773.776,1259.858z
				 M787.096,1249.418c-4.296,0-7.417,3.192-7.417,8.736c0,5.545,3.12,8.736,7.417,8.736c4.272,0,7.392-3.191,7.392-8.736
				C794.488,1252.61,791.368,1249.418,787.096,1249.418z M787.096,1263.003c-1.536,0-2.64-1.32-2.64-4.849s1.104-4.848,2.64-4.848
				c1.512,0,2.616,1.319,2.616,4.848S788.607,1263.003,787.096,1263.003z M796.647,1253.426h3.12v13.129h4.752v-16.801h-7.873
				V1253.426z M807.975,1249.754v6.36h4.056v-2.592h4.417l-5.665,13.032h5.185l5.928-13.824v-2.977H807.975z"/>
		</g>
	</g>
</g>
<g id="_x31_4_1_">
	<g id="Shape_5_copy_4">
		<g>
			<path fill-rule="evenodd" clip-rule="evenodd" fill="#CC2229" d="M668.513,1263.606h-67.773c-7.953,0-14.4,6.447-14.4,14.4v0.337
				c0,7.953,6.447,14.4,14.4,14.4h67.773c7.953,0,14.4-6.447,14.4-14.4v-0.337C682.913,1270.054,676.466,1263.606,668.513,1263.606z
				"/>
		</g>
	</g>
	<g id="_x31_990е_1_">
		<g>
			<path fill-rule="evenodd" clip-rule="evenodd" fill="#FFFFFF" d="M596.923,1272.275h3.12v13.128h4.752v-16.801h-7.873V1272.275z
				 M614.66,1268.267c-3.648,0-6.576,2.231-6.576,5.736c0,3.216,2.616,5.305,5.784,5.305c1.584,0,2.832-0.433,3.768-1.225
				c-0.264,2.544-1.848,3.889-4.224,3.889c-1.08,0-2.136-0.192-3.096-0.864l-1.728,3.408c1.224,0.792,3.048,1.224,4.92,1.224
				c5.329,0,8.953-3.336,8.953-9.192C622.46,1271.099,619.388,1268.267,614.66,1268.267z M614.996,1275.899
				c-1.368,0-2.304-0.816-2.304-2.112c0-1.32,0.936-2.137,2.28-2.137c1.44,0,2.352,0.864,2.352,2.112
				C617.324,1275.035,616.364,1275.899,614.996,1275.899z M637.388,1276.547c1.128-0.792,1.8-1.944,1.8-3.384
				c0-2.977-2.736-4.896-6.697-4.896c-3.96,0-6.696,1.92-6.696,4.896c0,1.439,0.672,2.592,1.8,3.384
				c-1.512,0.864-2.4,2.185-2.4,3.912c0,3.217,2.952,5.28,7.296,5.28s7.297-2.063,7.297-5.28
				C639.788,1278.731,638.9,1277.411,637.388,1276.547z M632.491,1271.603c1.176,0,2.016,0.648,2.016,1.776
				c0,1.104-0.816,1.752-2.016,1.752c-1.2,0-1.992-0.648-1.992-1.752C630.5,1272.251,631.315,1271.603,632.491,1271.603z
				 M632.491,1282.403c-1.512,0-2.52-0.792-2.52-2.088s1.008-2.088,2.52-2.088s2.521,0.792,2.521,2.088
				S634.003,1282.403,632.491,1282.403z M649.963,1268.267c-4.296,0-7.417,3.192-7.417,8.736s3.12,8.736,7.417,8.736
				c4.272,0,7.393-3.192,7.393-8.736S654.235,1268.267,649.963,1268.267z M649.963,1281.852c-1.537,0-2.64-1.32-2.64-4.849
				s1.104-4.849,2.64-4.849c1.512,0,2.616,1.32,2.616,4.849S651.475,1281.852,649.963,1281.852z M674.083,1278.924
				c0-4.297-3.12-6.745-6.96-6.745c-4.104,0-7.152,2.784-7.152,6.696c0,3.889,3,6.745,7.632,6.745c2.472,0,4.296-0.721,5.544-2.112
				l-2.4-2.496c-0.889,0.768-1.729,1.128-3,1.128c-1.68,0-2.808-0.769-3.192-2.089h9.457
				C674.036,1279.691,674.083,1279.26,674.083,1278.924z M664.483,1277.651c0.264-1.368,1.248-2.232,2.664-2.232
				c1.417,0,2.424,0.864,2.665,2.232H664.483z"/>
		</g>
	</g>
</g>
<g id="_x31_5_1_">
	<g id="Shape_5_copy">
		<g>
			<path fill-rule="evenodd" clip-rule="evenodd" fill="#CC2229" d="M658.176,1206.857h-67.773c-7.953,0-14.4,6.447-14.4,14.4v0.338
				c0,7.953,6.447,14.399,14.4,14.399h67.773c7.953,0,14.4-6.446,14.4-14.399v-0.338
				C672.576,1213.305,666.129,1206.857,658.176,1206.857z"/>
		</g>
	</g>
	<g id="_x31_986">
		<g>
			<path fill-rule="evenodd" clip-rule="evenodd" fill="#FFFFFF" d="M593.803,1216.115h3.12v13.129h4.752v-16.802h-7.873V1216.115z
				 M611.54,1212.106c-3.648,0-6.576,2.232-6.576,5.736c0,3.216,2.616,5.305,5.784,5.305c1.584,0,2.832-0.433,3.768-1.225
				c-0.264,2.544-1.848,3.889-4.224,3.889c-1.08,0-2.136-0.192-3.096-0.864l-1.728,3.408c1.224,0.792,3.048,1.224,4.92,1.224
				c5.329,0,8.953-3.336,8.953-9.192C619.34,1214.938,616.268,1212.106,611.54,1212.106z M611.875,1219.739
				c-1.368,0-2.304-0.816-2.304-2.112c0-1.32,0.936-2.137,2.28-2.137c1.44,0,2.352,0.864,2.352,2.112
				C614.204,1218.875,613.244,1219.739,611.875,1219.739z M634.268,1220.387c1.128-0.792,1.8-1.943,1.8-3.384
				c0-2.977-2.736-4.896-6.696-4.896c-3.96,0-6.697,1.92-6.697,4.896c0,1.44,0.672,2.592,1.8,3.384
				c-1.512,0.864-2.4,2.185-2.4,3.912c0,3.217,2.952,5.28,7.296,5.28s7.296-2.063,7.296-5.28
				C636.668,1222.571,635.78,1221.251,634.268,1220.387z M629.372,1215.442c1.176,0,2.016,0.648,2.016,1.776
				c0,1.104-0.816,1.752-2.016,1.752c-1.2,0-1.992-0.647-1.992-1.752C627.379,1216.091,628.195,1215.442,629.372,1215.442z
				 M629.372,1226.243c-1.512,0-2.521-0.792-2.521-2.088s1.008-2.088,2.521-2.088c1.512,0,2.52,0.792,2.52,2.088
				S630.883,1226.243,629.372,1226.243z M648.019,1218.539c-1.584,0-2.856,0.432-3.792,1.248c0.24-2.568,1.848-3.912,4.248-3.912
				c1.08,0,2.136,0.191,3.096,0.864l1.729-3.408c-1.224-0.792-3.048-1.225-4.945-1.225c-5.304,0-8.928,3.336-8.928,9.192
				c0,5.448,3.072,8.28,7.776,8.28c3.672,0,6.601-2.231,6.601-5.735C653.804,1220.627,651.188,1218.539,648.019,1218.539z
				 M646.915,1226.195c-1.44,0-2.352-0.864-2.352-2.112c0-1.271,0.96-2.136,2.328-2.136s2.304,0.816,2.304,2.112
				C649.195,1225.38,648.259,1226.195,646.915,1226.195z"/>
		</g>
	</g>
</g>
<g id="_x31_6_1_">
	<g id="Shape_5_copy_3">
		<g>
			<path fill-rule="evenodd" clip-rule="evenodd" fill="#CC2229" d="M666.905,1123.266h-67.773c-7.953,0-14.4,6.447-14.4,14.4v0.337
				c0,7.953,6.447,14.4,14.4,14.4h67.773c7.953,0,14.4-6.447,14.4-14.4v-0.337C681.305,1129.713,674.858,1123.266,666.905,1123.266z
				"/>
		</g>
	</g>
	<g id="_x31_990е_2_">
		<g>
			<path fill-rule="evenodd" clip-rule="evenodd" fill="#FFFFFF" d="M595.718,1132.527h3.12v13.129h4.752v-16.801h-7.872V1132.527z
				 M613.455,1128.52c-3.648,0-6.577,2.232-6.577,5.736c0,3.216,2.616,5.304,5.785,5.304c1.584,0,2.832-0.432,3.768-1.224
				c-0.264,2.544-1.848,3.888-4.224,3.888c-1.08,0-2.136-0.192-3.096-0.864l-1.729,3.408c1.224,0.792,3.048,1.224,4.92,1.224
				c5.329,0,8.953-3.336,8.953-9.192C621.255,1131.352,618.183,1128.52,613.455,1128.52z M613.791,1136.151
				c-1.368,0-2.304-0.816-2.304-2.112c0-1.32,0.936-2.136,2.28-2.136c1.44,0,2.352,0.864,2.352,2.112
				C616.119,1135.288,615.159,1136.151,613.791,1136.151z M630.23,1128.52c-3.648,0-6.577,2.232-6.577,5.736
				c0,3.216,2.616,5.304,5.784,5.304c1.584,0,2.833-0.432,3.769-1.224c-0.264,2.544-1.848,3.888-4.225,3.888
				c-1.08,0-2.136-0.192-3.096-0.864l-1.728,3.408c1.224,0.792,3.048,1.224,4.92,1.224c5.329,0,8.953-3.336,8.953-9.192
				C638.031,1131.352,634.958,1128.52,630.23,1128.52z M630.566,1136.151c-1.368,0-2.304-0.816-2.304-2.112
				c0-1.32,0.936-2.136,2.28-2.136c1.44,0,2.352,0.864,2.352,2.112C632.895,1135.288,631.935,1136.151,630.566,1136.151z
				 M648.278,1128.52c-4.296,0-7.416,3.192-7.416,8.736c0,5.544,3.12,8.736,7.416,8.736c4.272,0,7.393-3.192,7.393-8.736
				C655.67,1131.711,652.55,1128.52,648.278,1128.52z M648.278,1142.104c-1.536,0-2.64-1.321-2.64-4.849
				c0-3.528,1.104-4.849,2.64-4.849c1.512,0,2.616,1.32,2.616,4.849C650.894,1140.784,649.79,1142.104,648.278,1142.104z
				 M672.398,1139.176c0-4.296-3.12-6.744-6.96-6.744c-4.104,0-7.152,2.784-7.152,6.696c0,3.888,3,6.744,7.632,6.744
				c2.472,0,4.296-0.72,5.544-2.112l-2.4-2.497c-0.888,0.769-1.728,1.128-3,1.128c-1.68,0-2.808-0.768-3.192-2.088h9.457
				C672.35,1139.944,672.398,1139.512,672.398,1139.176z M662.798,1137.904c0.264-1.368,1.248-2.232,2.664-2.232
				s2.424,0.864,2.664,2.232H662.798z"/>
		</g>
	</g>
</g>
<g id="_x31_7_1_">
	<g id="Shape_5_copy_2">
		<g>
			<path fill-rule="evenodd" clip-rule="evenodd" fill="#CC2229" d="M628.896,1080.138h-67.773c-7.953,0-14.4,6.447-14.4,14.4v0.337
				c0,7.953,6.447,14.4,14.4,14.4h67.773c7.953,0,14.4-6.447,14.4-14.4v-0.337C643.296,1086.585,636.849,1080.138,628.896,1080.138z
				"/>
		</g>
	</g>
	<g id="_x31_990е_3_">
		<g>
			<path fill-rule="evenodd" clip-rule="evenodd" fill="#FFFFFF" d="M556.363,1089.395h3.12v13.128h4.752v-16.801h-7.873V1089.395z
				 M574.1,1085.387c-3.648,0-6.576,2.232-6.576,5.736c0,3.216,2.616,5.304,5.784,5.304c1.584,0,2.832-0.432,3.768-1.224
				c-0.264,2.544-1.848,3.888-4.224,3.888c-1.08,0-2.136-0.192-3.096-0.864l-1.728,3.408c1.224,0.792,3.048,1.224,4.92,1.224
				c5.328,0,8.952-3.336,8.952-9.192C581.9,1088.219,578.828,1085.387,574.1,1085.387z M574.436,1093.019
				c-1.368,0-2.304-0.816-2.304-2.112c0-1.32,0.937-2.136,2.28-2.136c1.44,0,2.353,0.864,2.353,2.112
				C576.764,1092.155,575.804,1093.019,574.436,1093.019z M590.875,1085.387c-3.648,0-6.577,2.232-6.577,5.736
				c0,3.216,2.616,5.304,5.785,5.304c1.584,0,2.832-0.432,3.768-1.224c-0.264,2.544-1.848,3.888-4.224,3.888
				c-1.08,0-2.136-0.192-3.096-0.864l-1.728,3.408c1.224,0.792,3.048,1.224,4.92,1.224c5.329,0,8.953-3.336,8.953-9.192
				C598.676,1088.219,595.604,1085.387,590.875,1085.387z M591.211,1093.019c-1.368,0-2.304-0.816-2.304-2.112
				c0-1.32,0.936-2.136,2.28-2.136c1.44,0,2.352,0.864,2.352,2.112C593.54,1092.155,592.58,1093.019,591.211,1093.019z
				 M608.923,1085.387c-4.296,0-7.416,3.192-7.416,8.736c0,5.544,3.12,8.736,7.416,8.736c4.272,0,7.393-3.192,7.393-8.736
				C616.316,1088.579,613.195,1085.387,608.923,1085.387z M608.923,1098.971c-1.536,0-2.64-1.32-2.64-4.848s1.104-4.849,2.64-4.849
				c1.512,0,2.616,1.32,2.616,4.849S610.435,1098.971,608.923,1098.971z M633.043,1096.043c0-4.296-3.12-6.745-6.96-6.745
				c-4.104,0-7.152,2.784-7.152,6.696c0,3.888,3,6.744,7.632,6.744c2.472,0,4.296-0.72,5.544-2.112l-2.4-2.496
				c-0.888,0.768-1.728,1.128-3,1.128c-1.68,0-2.808-0.769-3.192-2.088h9.457C632.995,1096.812,633.043,1096.379,633.043,1096.043z
				 M623.443,1094.771c0.264-1.368,1.248-2.232,2.664-2.232s2.424,0.864,2.664,2.232H623.443z"/>
		</g>
	</g>
</g>
<g id="_x31_8_1_">
	<g id="Shape_2_1_">
		<g>
			<polygon fill-rule="evenodd" clip-rule="evenodd" fill="#CC2229" points="695.748,943.203 624.696,943.33 613.508,957.673 
				624.9,973.287 695.712,972.959 707.016,957.753 			"/>
		</g>
	</g>
	<g id="_x31_950">
		<g>
			<path fill-rule="evenodd" clip-rule="evenodd" fill="#FFFFFF" d="M631.41,953.19h3.12v13.129h4.752v-16.801h-7.872V953.19z
				 M649.146,949.182c-3.648,0-6.576,2.232-6.576,5.737c0,3.216,2.616,5.304,5.784,5.304c1.584,0,2.833-0.432,3.769-1.224
				c-0.264,2.544-1.848,3.888-4.224,3.888c-1.081,0-2.137-0.192-3.097-0.864l-1.728,3.408c1.224,0.792,3.048,1.225,4.92,1.225
				c5.328,0,8.953-3.336,8.953-9.193C656.946,952.014,653.874,949.182,649.146,949.182z M649.481,956.814
				c-1.368,0-2.304-0.816-2.304-2.112c0-1.32,0.936-2.136,2.28-2.136c1.44,0,2.353,0.864,2.353,2.112
				C651.81,955.95,650.85,956.814,649.481,956.814z M666.065,955.638h-1.128l0.216-2.448h6.768v-3.672h-10.704l-0.84,9.817h4.56
				c2.568,0,3.265,0.672,3.265,1.704c0,1.128-1.08,1.776-2.688,1.776c-1.608,0-3.288-0.48-4.656-1.392l-1.704,3.576
				c1.704,1.081,4.176,1.657,6.504,1.657c5.064,0,7.32-2.736,7.32-5.737C672.978,957.942,671.034,955.638,666.065,955.638z
				 M682.961,949.182c-4.296,0-7.417,3.192-7.417,8.737s3.12,8.737,7.417,8.737c4.272,0,7.393-3.192,7.393-8.737
				S687.233,949.182,682.961,949.182z M682.961,962.767c-1.536,0-2.64-1.32-2.64-4.848c0-3.528,1.104-4.848,2.64-4.848
				c1.512,0,2.616,1.32,2.616,4.848C685.578,961.446,684.473,962.767,682.961,962.767z"/>
		</g>
	</g>
</g>
<g id="_x31_9_1_">
	<g id="Shape_1_7_">
		<g>
			<rect x="766.366" y="1328.158" fill-rule="evenodd" clip-rule="evenodd" fill="#CC2229" width="86.436" height="29.755"/>
		</g>
	</g>
	<g id="_x32_008_2_">
		<g>
			<path fill-rule="evenodd" clip-rule="evenodd" fill="#FFFFFF" d="M788.919,1345.061c2.4-2.208,2.856-3.696,2.856-5.328
				c0-3.12-2.664-5.112-6.528-5.112c-3.312,0-5.688,1.392-6.96,3.504l3.528,1.969c0.672-1.08,1.776-1.633,3-1.633
				c1.44,0,2.16,0.648,2.16,1.729c0,0.696-0.192,1.464-1.536,2.712l-6.289,5.881v2.976h13.081v-3.768h-6.48L788.919,1345.061z
				 M802.239,1334.62c-4.296,0-7.417,3.192-7.417,8.736s3.12,8.736,7.417,8.736c4.272,0,7.393-3.192,7.393-8.736
				S806.511,1334.62,802.239,1334.62z M802.239,1348.205c-1.536,0-2.64-1.32-2.64-4.849s1.104-4.849,2.64-4.849
				c1.512,0,2.616,1.32,2.616,4.849S803.751,1348.205,802.239,1348.205z M811.791,1338.628h3.12v13.129h4.752v-16.801h-7.872
				V1338.628z M830.799,1334.62c-4.296,0-7.417,3.192-7.417,8.736s3.12,8.736,7.417,8.736c4.272,0,7.393-3.192,7.393-8.736
				S835.071,1334.62,830.799,1334.62z M830.799,1348.205c-1.536,0-2.64-1.32-2.64-4.849s1.104-4.849,2.64-4.849
				c1.512,0,2.616,1.32,2.616,4.849S832.311,1348.205,830.799,1348.205z"/>
		</g>
	</g>
</g>
<g id="_x32_0_1_">
	<g id="Shape_1_copy_13">
		<g>
			<polygon fill-rule="evenodd" clip-rule="evenodd" fill="#CC2229" points="507.62,1337.9 489.027,1367.654 575.462,1367.654 
				594.055,1337.9 			"/>
		</g>
	</g>
	<g id="_x32_015">
		<g>
			<path fill-rule="evenodd" clip-rule="evenodd" fill="#FFFFFF" d="M521.495,1353.839c2.4-2.208,2.856-3.696,2.856-5.329
				c0-3.119-2.664-5.111-6.528-5.111c-3.312,0-5.688,1.392-6.96,3.504l3.528,1.968c0.672-1.08,1.776-1.632,3-1.632
				c1.44,0,2.16,0.648,2.16,1.729c0,0.695-0.192,1.464-1.536,2.712l-6.288,5.88v2.977h13.081v-3.769h-6.48L521.495,1353.839z
				 M534.815,1343.398c-4.296,0-7.417,3.191-7.417,8.736c0,5.544,3.12,8.736,7.417,8.736c4.272,0,7.393-3.192,7.393-8.736
				C542.208,1346.59,539.087,1343.398,534.815,1343.398z M534.815,1356.982c-1.536,0-2.64-1.319-2.64-4.848s1.104-4.849,2.64-4.849
				c1.512,0,2.616,1.32,2.616,4.849S536.327,1356.982,534.815,1356.982z M544.366,1347.406h3.121v13.129h4.752v-16.801h-7.873
				V1347.406z M562.247,1349.854h-1.128l0.216-2.448h6.769v-3.672h-10.705l-0.84,9.816h4.56c2.568,0,3.264,0.672,3.264,1.704
				c0,1.128-1.08,1.776-2.688,1.776s-3.288-0.48-4.656-1.393l-1.705,3.576c1.705,1.08,4.177,1.656,6.505,1.656
				c5.064,0,7.32-2.736,7.32-5.736C569.159,1352.158,567.215,1349.854,562.247,1349.854z"/>
		</g>
	</g>
</g>
<g id="_x32_2_1_">
	<g id="Shape_1_copy_4">
		<g>
			<polygon fill-rule="evenodd" clip-rule="evenodd" fill="#CC2229" points="1056.74,688.22 1038.147,717.975 1124.583,717.975 
				1143.174,688.22 			"/>
		</g>
	</g>
	<g id="_x32_011">
		<g>
			<path fill-rule="evenodd" clip-rule="evenodd" fill="#FFFFFF" d="M1073.199,704.422c2.4-2.208,2.856-3.696,2.856-5.329
				c0-3.12-2.664-5.112-6.528-5.112c-3.312,0-5.688,1.392-6.961,3.504l3.528,1.968c0.672-1.08,1.776-1.632,3-1.632
				c1.44,0,2.16,0.647,2.16,1.728c0,0.696-0.191,1.464-1.536,2.712l-6.288,5.88v2.976h13.081v-3.768h-6.48L1073.199,704.422z
				 M1086.519,693.981c-4.297,0-7.417,3.192-7.417,8.737s3.12,8.736,7.417,8.736c4.271,0,7.392-3.192,7.392-8.736
				S1090.791,693.981,1086.519,693.981z M1086.519,707.566c-1.536,0-2.641-1.32-2.641-4.848s1.104-4.849,2.641-4.849
				c1.512,0,2.616,1.32,2.616,4.849S1088.031,707.566,1086.519,707.566z M1096.07,697.99h3.12v13.129h4.753v-16.801h-7.873V697.99z
				 M1106.99,694.317v3.672h3.12v13.129h4.753v-16.801H1106.99z"/>
		</g>
	</g>
</g>
<g id="_x32_1_1_">
	<g id="Shape_1_copy_5">
		<g>
			<polygon fill-rule="evenodd" clip-rule="evenodd" fill="#CC2229" points="1007.694,740.333 989.101,770.087 1075.536,770.087 
				1094.128,740.333 			"/>
		</g>
	</g>
	<g id="_x32_016">
		<g>
			<path fill-rule="evenodd" clip-rule="evenodd" fill="#FFFFFF" d="M1021.244,757.073c2.399-2.208,2.855-3.696,2.855-5.328
				c0-3.12-2.664-5.112-6.528-5.112c-3.312,0-5.688,1.392-6.96,3.504l3.528,1.968c0.672-1.08,1.775-1.632,3-1.632
				c1.44,0,2.16,0.648,2.16,1.728c0,0.696-0.191,1.464-1.536,2.712l-6.288,5.88v2.977h13.081v-3.768h-6.48L1021.244,757.073z
				 M1034.563,746.633c-4.296,0-7.416,3.192-7.416,8.736c0,5.545,3.12,8.737,7.416,8.737c4.272,0,7.393-3.192,7.393-8.737
				C1041.956,749.825,1038.835,746.633,1034.563,746.633z M1034.563,760.218c-1.536,0-2.64-1.32-2.64-4.849
				c0-3.528,1.104-4.848,2.64-4.848c1.513,0,2.616,1.32,2.616,4.848C1037.179,758.897,1036.076,760.218,1034.563,760.218z
				 M1044.115,750.641h3.12v13.129h4.752v-16.801h-7.872V750.641z M1064.299,753.065c-1.584,0-2.856,0.432-3.792,1.249
				c0.239-2.568,1.848-3.912,4.248-3.912c1.08,0,2.136,0.192,3.096,0.864l1.729-3.408c-1.225-0.792-3.048-1.224-4.944-1.224
				c-5.305,0-8.929,3.336-8.929,9.193c0,5.448,3.072,8.28,7.776,8.28c3.672,0,6.601-2.232,6.601-5.736
				C1070.083,755.153,1067.467,753.065,1064.299,753.065z M1063.195,760.722c-1.439,0-2.352-0.864-2.352-2.112
				c0-1.272,0.96-2.136,2.328-2.136s2.304,0.816,2.304,2.112C1065.475,759.906,1064.54,760.722,1063.195,760.722z"/>
		</g>
	</g>
</g>
<g id="_x32_3_1_">
	<g id="Shape_1_8_">
		<g>
			<rect x="1216.844" y="837.599" fill-rule="evenodd" clip-rule="evenodd" fill="#CC2229" width="95.078" height="29.754"/>
		</g>
	</g>
	<g id="_x32_000е_2_">
		<g>
			<path fill-rule="evenodd" clip-rule="evenodd" fill="#FFFFFF" d="M1232.918,854.501c2.4-2.208,2.856-3.696,2.856-5.329
				c0-3.12-2.664-5.112-6.528-5.112c-3.312,0-5.688,1.392-6.96,3.504l3.527,1.968c0.673-1.08,1.776-1.632,3.001-1.632
				c1.44,0,2.16,0.648,2.16,1.728c0,0.696-0.192,1.464-1.536,2.712l-6.289,5.881v2.976h13.081v-3.769h-6.48L1232.918,854.501z
				 M1246.239,844.06c-4.296,0-7.417,3.192-7.417,8.737c0,5.544,3.121,8.736,7.417,8.736c4.272,0,7.393-3.192,7.393-8.736
				C1253.631,847.252,1250.511,844.06,1246.239,844.06z M1246.239,857.645c-1.536,0-2.641-1.32-2.641-4.848
				c0-3.528,1.104-4.849,2.641-4.849c1.513,0,2.616,1.32,2.616,4.849C1248.855,856.325,1247.751,857.645,1246.239,857.645z
				 M1263.878,844.06c-4.296,0-7.416,3.192-7.416,8.737c0,5.544,3.12,8.736,7.416,8.736c4.272,0,7.393-3.192,7.393-8.736
				C1271.271,847.252,1268.151,844.06,1263.878,844.06z M1263.878,857.645c-1.536,0-2.64-1.32-2.64-4.848
				c0-3.528,1.104-4.849,2.64-4.849c1.513,0,2.616,1.32,2.616,4.849C1266.495,856.325,1265.391,857.645,1263.878,857.645z
				 M1281.519,844.06c-4.297,0-7.417,3.192-7.417,8.737c0,5.544,3.12,8.736,7.417,8.736c4.271,0,7.392-3.192,7.392-8.736
				C1288.911,847.252,1285.791,844.06,1281.519,844.06z M1281.519,857.645c-1.536,0-2.641-1.32-2.641-4.848
				c0-3.528,1.104-4.849,2.641-4.849c1.512,0,2.616,1.32,2.616,4.849C1284.135,856.325,1283.031,857.645,1281.519,857.645z
				 M1305.639,854.717c0-4.296-3.12-6.745-6.961-6.745c-4.104,0-7.152,2.784-7.152,6.696c0,3.889,3,6.745,7.633,6.745
				c2.472,0,4.296-0.72,5.544-2.112l-2.4-2.496c-0.888,0.768-1.728,1.128-3,1.128c-1.68,0-2.808-0.768-3.192-2.088h9.457
				C1305.591,855.485,1305.639,855.053,1305.639,854.717z M1296.039,853.445c0.264-1.368,1.248-2.232,2.664-2.232
				s2.424,0.864,2.664,2.232H1296.039z"/>
		</g>
	</g>
</g>
<g id="_x32_4_1_">
	<g id="Shape_1_copy_6">
		<g>
			<polygon fill-rule="evenodd" clip-rule="evenodd" fill="#CC2229" points="1293.534,795.053 1274.941,824.807 1361.376,824.807 
				1379.968,795.053 			"/>
		</g>
	</g>
	<g id="_x32_014_3_">
		<g>
			<path fill-rule="evenodd" clip-rule="evenodd" fill="#FFFFFF" d="M1306.579,810.893c2.4-2.208,2.856-3.696,2.856-5.328
				c0-3.121-2.664-5.113-6.528-5.113c-3.312,0-5.688,1.392-6.961,3.504l3.528,1.968c0.672-1.081,1.776-1.632,3-1.632
				c1.44,0,2.16,0.648,2.16,1.728c0,0.696-0.191,1.464-1.536,2.712l-6.288,5.88v2.976h13.081v-3.768h-6.48L1306.579,810.893z
				 M1319.898,800.452c-4.296,0-7.416,3.192-7.416,8.737s3.12,8.736,7.416,8.736c4.272,0,7.393-3.192,7.393-8.736
				S1324.17,800.452,1319.898,800.452z M1319.898,814.037c-1.535,0-2.64-1.32-2.64-4.848c0-3.528,1.104-4.849,2.64-4.849
				c1.513,0,2.617,1.32,2.617,4.849C1322.515,812.716,1321.411,814.037,1319.898,814.037z M1329.45,804.46h3.12v13.129h4.753
				v-16.801h-7.873V804.46z M1354.386,810.604v-2.856h-4.488v2.856h-3.407l6.84-9.817h-4.92l-7.537,10.489v3.096h8.881v3.216h4.632
				v-3.216h2.496v-3.768H1354.386z"/>
		</g>
	</g>
</g>
<g id="_x32_5_1_">
	<g id="Shape_1_copy_7">
		<g>
			<polygon fill-rule="evenodd" clip-rule="evenodd" fill="#CC2229" points="1332.02,882.38 1313.427,912.135 1399.862,912.135 
				1418.455,882.38 			"/>
		</g>
	</g>
	<g id="_x32_011_1_">
		<g>
			<path fill-rule="evenodd" clip-rule="evenodd" fill="#FFFFFF" d="M1348.626,898.476c2.4-2.208,2.856-3.696,2.856-5.329
				c0-3.12-2.664-5.112-6.528-5.112c-3.312,0-5.688,1.392-6.961,3.504l3.528,1.968c0.672-1.08,1.776-1.632,3-1.632
				c1.44,0,2.16,0.648,2.16,1.728c0,0.696-0.191,1.464-1.536,2.712l-6.288,5.88v2.976h13.081v-3.768h-6.48L1348.626,898.476z
				 M1361.947,888.035c-4.297,0-7.417,3.192-7.417,8.736c0,5.545,3.12,8.737,7.417,8.737c4.271,0,7.393-3.192,7.393-8.737
				C1369.339,891.228,1366.218,888.035,1361.947,888.035z M1361.947,901.62c-1.536,0-2.641-1.32-2.641-4.849
				c0-3.528,1.104-4.848,2.641-4.848c1.512,0,2.616,1.32,2.616,4.848C1364.563,900.3,1363.458,901.62,1361.947,901.62z
				 M1371.498,892.043h3.121v13.129h4.752v-16.801h-7.873V892.043z M1382.417,888.371v3.672h3.12v13.129h4.753v-16.801H1382.417z"/>
		</g>
	</g>
</g>
<g id="_x32_6_1_">
	<g id="Shape_2_2_">
		<g>
			<polygon fill-rule="evenodd" clip-rule="evenodd" fill="#CC2229" points="1371.523,974.676 1300.471,974.802 1289.284,989.145 
				1300.675,1004.759 1371.488,1004.432 1382.792,989.226 			"/>
		</g>
	</g>
	<g id="_x31_950_1_">
		<g>
			<path fill-rule="evenodd" clip-rule="evenodd" fill="#FFFFFF" d="M1306.53,985.35h3.12v13.129h4.752v-16.801h-7.872V985.35z
				 M1324.265,981.342c-3.647,0-6.576,2.232-6.576,5.736c0,3.216,2.616,5.305,5.784,5.305c1.585,0,2.833-0.433,3.769-1.224
				c-0.264,2.544-1.848,3.888-4.224,3.888c-1.081,0-2.137-0.192-3.097-0.864l-1.729,3.408c1.225,0.792,3.049,1.224,4.921,1.224
				c5.328,0,8.952-3.336,8.952-9.192C1332.066,984.174,1328.994,981.342,1324.265,981.342z M1324.602,988.975
				c-1.368,0-2.305-0.816-2.305-2.112c0-1.32,0.937-2.136,2.28-2.136c1.44,0,2.353,0.864,2.353,2.112
				C1326.93,988.11,1325.97,988.975,1324.602,988.975z M1341.185,987.798h-1.128l0.216-2.448h6.769v-3.672h-10.704l-0.841,9.816
				h4.561c2.568,0,3.265,0.672,3.265,1.705c0,1.128-1.08,1.776-2.688,1.776s-3.288-0.48-4.656-1.392l-1.704,3.576
				c1.704,1.08,4.176,1.656,6.504,1.656c5.064,0,7.321-2.736,7.321-5.736C1348.098,990.103,1346.154,987.798,1341.185,987.798z
				 M1358.082,981.342c-4.297,0-7.417,3.192-7.417,8.736c0,5.544,3.12,8.737,7.417,8.737c4.272,0,7.393-3.192,7.393-8.737
				C1365.474,984.534,1362.354,981.342,1358.082,981.342z M1358.082,994.927c-1.536,0-2.641-1.32-2.641-4.849
				c0-3.528,1.104-4.848,2.641-4.848c1.512,0,2.616,1.32,2.616,4.848C1360.698,993.606,1359.593,994.927,1358.082,994.927z"/>
		</g>
	</g>
</g>
<g id="_x32_7_1_">
	<g id="Shape_1_9_">
		<g>
			<rect x="1204.542" y="1049.642" fill-rule="evenodd" clip-rule="evenodd" fill="#CC2229" width="86.435" height="29.755"/>
		</g>
	</g>
	<g id="_x32_008_3_">
		<g>
			<path fill-rule="evenodd" clip-rule="evenodd" fill="#FFFFFF" d="M1224.695,1066.543c2.4-2.208,2.856-3.696,2.856-5.328
				c0-3.12-2.664-5.112-6.528-5.112c-3.312,0-5.688,1.392-6.961,3.504l3.528,1.968c0.673-1.08,1.776-1.632,3.001-1.632
				c1.439,0,2.16,0.648,2.16,1.728c0,0.696-0.192,1.464-1.536,2.712l-6.289,5.88v2.976h13.081v-3.769h-6.48L1224.695,1066.543z
				 M1238.015,1056.103c-4.297,0-7.417,3.192-7.417,8.737c0,5.544,3.12,8.736,7.417,8.736c4.272,0,7.393-3.192,7.393-8.736
				C1245.408,1059.295,1242.288,1056.103,1238.015,1056.103z M1238.015,1069.688c-1.536,0-2.641-1.32-2.641-4.848
				s1.104-4.849,2.641-4.849c1.512,0,2.616,1.32,2.616,4.849S1239.527,1069.688,1238.015,1069.688z M1255.655,1056.103
				c-4.296,0-7.416,3.192-7.416,8.737c0,5.544,3.12,8.736,7.416,8.736c4.272,0,7.393-3.192,7.393-8.736
				C1263.047,1059.295,1259.927,1056.103,1255.655,1056.103z M1255.655,1069.688c-1.536,0-2.641-1.32-2.641-4.848
				s1.104-4.849,2.641-4.849c1.513,0,2.616,1.32,2.616,4.849S1257.167,1069.688,1255.655,1069.688z M1272.023,1056.103
				c-3.648,0-6.576,2.232-6.576,5.736c0,3.216,2.615,5.304,5.784,5.304c1.584,0,2.832-0.432,3.768-1.224
				c-0.264,2.544-1.848,3.888-4.224,3.888c-1.08,0-2.137-0.192-3.097-0.865l-1.728,3.408c1.224,0.792,3.048,1.225,4.92,1.225
				c5.328,0,8.953-3.336,8.953-9.192C1279.824,1058.936,1276.751,1056.103,1272.023,1056.103z M1272.359,1063.735
				c-1.368,0-2.305-0.816-2.305-2.112c0-1.32,0.937-2.136,2.28-2.136c1.44,0,2.353,0.864,2.353,2.112
				C1274.687,1062.871,1273.727,1063.735,1272.359,1063.735z"/>
		</g>
	</g>
</g>
<g id="_x32_8_1_">
	<g id="Shape_5_copy_8">
		<g>
			<path fill-rule="evenodd" clip-rule="evenodd" fill="#CC2229" d="M1488.223,1865.019h-67.772c-7.953,0-14.4,6.447-14.4,14.399
				v0.338c0,7.953,6.447,14.4,14.4,14.4h67.772c7.953,0,14.4-6.447,14.4-14.4v-0.338
				C1502.624,1871.466,1496.176,1865.019,1488.223,1865.019z"/>
		</g>
	</g>
	<g id="_x31_986_1_">
		<g>
			<path fill-rule="evenodd" clip-rule="evenodd" fill="#FFFFFF" d="M1423.526,1874.405h3.12v13.128h4.753v-16.801h-7.873V1874.405z
				 M1441.263,1870.396c-3.648,0-6.577,2.232-6.577,5.736c0,3.216,2.616,5.305,5.784,5.305c1.584,0,2.832-0.433,3.769-1.225
				c-0.264,2.545-1.849,3.889-4.225,3.889c-1.08,0-2.136-0.192-3.096-0.864l-1.729,3.408c1.225,0.792,3.049,1.224,4.921,1.224
				c5.328,0,8.952-3.336,8.952-9.192C1449.063,1873.229,1445.991,1870.396,1441.263,1870.396z M1441.598,1878.029
				c-1.367,0-2.304-0.816-2.304-2.112c0-1.32,0.937-2.136,2.28-2.136c1.44,0,2.352,0.863,2.352,2.111
				C1443.926,1877.165,1442.966,1878.029,1441.598,1878.029z M1463.991,1878.677c1.128-0.792,1.8-1.944,1.8-3.384
				c0-2.977-2.736-4.896-6.696-4.896s-6.696,1.92-6.696,4.896c0,1.439,0.672,2.592,1.8,3.384c-1.512,0.864-2.4,2.185-2.4,3.912
				c0,3.217,2.953,5.28,7.297,5.28s7.297-2.063,7.297-5.28C1466.391,1880.861,1465.502,1879.541,1463.991,1878.677z
				 M1459.094,1873.732c1.176,0,2.017,0.648,2.017,1.776c0,1.104-0.816,1.752-2.017,1.752s-1.992-0.647-1.992-1.752
				C1457.102,1874.381,1457.918,1873.732,1459.094,1873.732z M1459.094,1884.533c-1.512,0-2.521-0.792-2.521-2.088
				s1.009-2.088,2.521-2.088s2.521,0.792,2.521,2.088S1460.606,1884.533,1459.094,1884.533z M1481.247,1878.677
				c1.128-0.792,1.8-1.944,1.8-3.384c0-2.977-2.735-4.896-6.696-4.896c-3.96,0-6.696,1.92-6.696,4.896
				c0,1.439,0.672,2.592,1.8,3.384c-1.512,0.864-2.4,2.185-2.4,3.912c0,3.217,2.952,5.28,7.297,5.28c4.344,0,7.297-2.063,7.297-5.28
				C1483.647,1880.861,1482.758,1879.541,1481.247,1878.677z M1476.35,1873.732c1.176,0,2.016,0.648,2.016,1.776
				c0,1.104-0.815,1.752-2.016,1.752s-1.992-0.647-1.992-1.752C1474.358,1874.381,1475.174,1873.732,1476.35,1873.732z
				 M1476.35,1884.533c-1.512,0-2.52-0.792-2.52-2.088s1.008-2.088,2.52-2.088s2.52,0.792,2.52,2.088
				S1477.862,1884.533,1476.35,1884.533z"/>
		</g>
	</g>
</g>
<g id="_x32_9_1_">
	<g id="Shape_1_10_">
		<g>
			<rect x="966.532" y="1878.243" fill-rule="evenodd" clip-rule="evenodd" fill="#FFFFFF" width="86.435" height="29.754"/>
		</g>
	</g>
	<g id="_x31_998">
		<g>
			<path fill-rule="evenodd" clip-rule="evenodd" fill="#CC2229" d="M980.9,1888.712h3.12v13.129h4.753v-16.801H980.9V1888.712z
				 M998.636,1884.704c-3.647,0-6.576,2.232-6.576,5.736c0,3.216,2.616,5.305,5.784,5.305c1.584,0,2.832-0.433,3.769-1.225
				c-0.265,2.544-1.849,3.889-4.225,3.889c-1.08,0-2.136-0.192-3.096-0.864l-1.729,3.408c1.225,0.792,3.048,1.224,4.921,1.224
				c5.328,0,8.952-3.336,8.952-9.192C1006.437,1887.536,1003.365,1884.704,998.636,1884.704z M998.972,1892.337
				c-1.368,0-2.304-0.816-2.304-2.112c0-1.32,0.936-2.137,2.28-2.137c1.439,0,2.352,0.864,2.352,2.112
				C1001.3,1891.473,1000.34,1892.337,998.972,1892.337z M1015.413,1884.704c-3.648,0-6.577,2.232-6.577,5.736
				c0,3.216,2.616,5.305,5.784,5.305c1.584,0,2.833-0.433,3.769-1.225c-0.264,2.544-1.848,3.889-4.225,3.889
				c-1.079,0-2.136-0.192-3.096-0.864l-1.729,3.408c1.225,0.792,3.049,1.224,4.921,1.224c5.328,0,8.952-3.336,8.952-9.192
				C1023.212,1887.536,1020.14,1884.704,1015.413,1884.704z M1015.749,1892.337c-1.368,0-2.305-0.816-2.305-2.112
				c0-1.32,0.937-2.137,2.28-2.137c1.44,0,2.353,0.864,2.353,2.112C1018.077,1891.473,1017.116,1892.337,1015.749,1892.337z
				 M1038.14,1892.984c1.128-0.792,1.8-1.943,1.8-3.384c0-2.977-2.736-4.896-6.696-4.896s-6.696,1.92-6.696,4.896
				c0,1.44,0.672,2.592,1.8,3.384c-1.512,0.864-2.399,2.185-2.399,3.913c0,3.216,2.952,5.279,7.296,5.279
				c4.345,0,7.297-2.063,7.297-5.279C1040.541,1895.169,1039.652,1893.849,1038.14,1892.984z M1033.244,1888.04
				c1.176,0,2.017,0.648,2.017,1.776c0,1.104-0.816,1.752-2.017,1.752s-1.992-0.647-1.992-1.752
				C1031.251,1888.688,1032.068,1888.04,1033.244,1888.04z M1033.244,1898.841c-1.512,0-2.521-0.792-2.521-2.088
				s1.009-2.088,2.521-2.088c1.513,0,2.521,0.792,2.521,2.088S1034.756,1898.841,1033.244,1898.841z"/>
		</g>
	</g>
</g>
<g id="_x33_0_1_">
	<g id="Shape_1_11_">
		<g>
			<rect x="718.825" y="2026.192" fill-rule="evenodd" clip-rule="evenodd" fill="#CC2229" width="95.079" height="29.755"/>
		</g>
	</g>
	<g id="_x32_000е_3_">
		<g>
			<path fill-rule="evenodd" clip-rule="evenodd" fill="#FFFFFF" d="M734.9,2043.814c2.4-2.208,2.856-3.696,2.856-5.328
				c0-3.12-2.664-5.112-6.528-5.112c-3.312,0-5.688,1.392-6.96,3.504l3.528,1.968c0.672-1.08,1.776-1.632,3-1.632
				c1.44,0,2.16,0.648,2.16,1.729c0,0.695-0.192,1.464-1.536,2.712l-6.289,5.881v2.977h13.081v-3.77h-6.48L734.9,2043.814z
				 M748.22,2033.374c-4.296,0-7.417,3.192-7.417,8.736s3.12,8.736,7.417,8.736c4.272,0,7.392-3.192,7.392-8.736
				S752.492,2033.374,748.22,2033.374z M748.22,2046.959c-1.536,0-2.641-1.32-2.641-4.849s1.104-4.849,2.641-4.849
				c1.512,0,2.616,1.32,2.616,4.849S749.732,2046.959,748.22,2046.959z M765.86,2033.374c-4.296,0-7.417,3.192-7.417,8.736
				s3.121,8.736,7.417,8.736c4.272,0,7.393-3.192,7.393-8.736S770.132,2033.374,765.86,2033.374z M765.86,2046.959
				c-1.536,0-2.64-1.32-2.64-4.849s1.104-4.849,2.64-4.849c1.512,0,2.616,1.32,2.616,4.849S767.372,2046.959,765.86,2046.959z
				 M783.5,2033.374c-4.296,0-7.417,3.192-7.417,8.736s3.12,8.736,7.417,8.736c4.272,0,7.392-3.192,7.392-8.736
				S787.772,2033.374,783.5,2033.374z M783.5,2046.959c-1.536,0-2.64-1.32-2.64-4.849s1.104-4.849,2.64-4.849
				c1.512,0,2.616,1.32,2.616,4.849S785.012,2046.959,783.5,2046.959z M807.62,2044.03c0-4.296-3.12-6.744-6.96-6.744
				c-4.104,0-7.152,2.784-7.152,6.696c0,3.889,3,6.744,7.632,6.744c2.472,0,4.296-0.72,5.544-2.111l-2.4-2.497
				c-0.888,0.769-1.728,1.129-3,1.129c-1.68,0-2.809-0.769-3.192-2.089h9.457C807.572,2044.799,807.62,2044.367,807.62,2044.03z
				 M798.02,2042.758c0.264-1.367,1.248-2.232,2.664-2.232c1.417,0,2.424,0.865,2.665,2.232H798.02z"/>
		</g>
	</g>
</g>
<g id="_x33_1_1_">
	<g id="Shape_1_12_">
		<g>
			<rect x="747.412" y="1910.883" fill-rule="evenodd" clip-rule="evenodd" fill="#FFFFFF" width="86.435" height="29.754"/>
		</g>
	</g>
	<g id="_x32_008_4_">
		<g>
			<path fill-rule="evenodd" clip-rule="evenodd" fill="#CC2229" d="M767.325,1927.785c2.4-2.209,2.856-3.697,2.856-5.329
				c0-3.12-2.664-5.112-6.528-5.112c-3.312,0-5.688,1.393-6.96,3.505l3.528,1.968c0.672-1.08,1.776-1.633,3-1.633
				c1.44,0,2.16,0.648,2.16,1.729c0,0.696-0.192,1.464-1.536,2.713l-6.288,5.88v2.977h13.081v-3.769h-6.48L767.325,1927.785z
				 M780.645,1917.344c-4.296,0-7.417,3.192-7.417,8.736c0,5.545,3.12,8.737,7.417,8.737c4.272,0,7.392-3.192,7.392-8.737
				C788.037,1920.536,784.917,1917.344,780.645,1917.344z M780.645,1930.929c-1.536,0-2.64-1.319-2.64-4.849
				c0-3.527,1.104-4.848,2.64-4.848c1.512,0,2.616,1.32,2.616,4.848C783.261,1929.609,782.157,1930.929,780.645,1930.929z
				 M798.285,1917.344c-4.296,0-7.417,3.192-7.417,8.736c0,5.545,3.121,8.737,7.417,8.737c4.272,0,7.392-3.192,7.392-8.737
				C805.677,1920.536,802.557,1917.344,798.285,1917.344z M798.285,1930.929c-1.536,0-2.641-1.319-2.641-4.849
				c0-3.527,1.104-4.848,2.641-4.848c1.512,0,2.616,1.32,2.616,4.848C800.9,1929.609,799.796,1930.929,798.285,1930.929z
				 M820.604,1925.625c1.128-0.792,1.8-1.944,1.8-3.385c0-2.977-2.736-4.896-6.696-4.896c-3.96,0-6.696,1.92-6.696,4.896
				c0,1.44,0.672,2.593,1.8,3.385c-1.512,0.864-2.4,2.184-2.4,3.912c0,3.216,2.952,5.28,7.296,5.28c4.344,0,7.296-2.064,7.296-5.28
				C823.005,1927.809,822.117,1926.489,820.604,1925.625z M815.708,1920.681c1.176,0,2.016,0.647,2.016,1.775
				c0,1.104-0.816,1.752-2.016,1.752c-1.2,0-1.992-0.647-1.992-1.752C813.716,1921.328,814.532,1920.681,815.708,1920.681z
				 M815.708,1931.481c-1.512,0-2.52-0.793-2.52-2.089s1.008-2.088,2.52-2.088s2.52,0.792,2.52,2.088
				S817.221,1931.481,815.708,1931.481z"/>
		</g>
	</g>
</g>
<g id="_x33_3_1_">
	<g id="Shape_1_copy_14">
		<g>
			<polygon fill-rule="evenodd" clip-rule="evenodd" fill="#CC2229" points="485.777,1613.817 465.326,1643.572 560.404,1643.572 
				580.856,1613.817 			"/>
		</g>
	</g>
	<g id="_x32_010е">
		<g>
			<path fill-rule="evenodd" clip-rule="evenodd" fill="#FFFFFF" d="M494.711,1630.747c2.4-2.208,2.856-3.696,2.856-5.328
				c0-3.12-2.664-5.112-6.529-5.112c-3.312,0-5.688,1.392-6.96,3.504l3.528,1.968c0.672-1.079,1.776-1.632,3-1.632
				c1.44,0,2.16,0.648,2.16,1.729c0,0.696-0.192,1.464-1.536,2.712l-6.289,5.881v2.976h13.081v-3.768h-6.48L494.711,1630.747z
				 M508.03,1620.307c-4.296,0-7.417,3.192-7.417,8.736c0,5.545,3.121,8.736,7.417,8.736c4.272,0,7.393-3.191,7.393-8.736
				C515.423,1623.499,512.303,1620.307,508.03,1620.307z M508.03,1633.892c-1.536,0-2.64-1.32-2.64-4.849s1.104-4.849,2.64-4.849
				c1.512,0,2.616,1.32,2.616,4.849S509.542,1633.892,508.03,1633.892z M517.582,1624.314h3.12v13.129h4.752v-16.801h-7.873
				V1624.314z M536.59,1620.307c-4.296,0-7.417,3.192-7.417,8.736c0,5.545,3.12,8.736,7.417,8.736c4.272,0,7.393-3.191,7.393-8.736
				C543.983,1623.499,540.863,1620.307,536.59,1620.307z M536.59,1633.892c-1.536,0-2.64-1.32-2.64-4.849s1.104-4.849,2.64-4.849
				c1.512,0,2.616,1.32,2.616,4.849S538.103,1633.892,536.59,1633.892z M560.71,1630.963c0-4.296-3.12-6.744-6.96-6.744
				c-4.104,0-7.153,2.784-7.153,6.696c0,3.889,3,6.745,7.632,6.745c2.473,0,4.296-0.721,5.544-2.112l-2.4-2.496
				c-0.888,0.768-1.728,1.128-3,1.128c-1.68,0-2.809-0.769-3.192-2.089h9.457C560.663,1631.731,560.71,1631.299,560.71,1630.963z
				 M551.11,1629.691c0.264-1.368,1.248-2.232,2.664-2.232c1.417,0,2.425,0.864,2.665,2.232H551.11z"/>
		</g>
	</g>
</g>
<g id="_x33_4_1_">
	<g id="Shape_1_13_">
		<g>
			<polygon fill-rule="evenodd" clip-rule="evenodd" fill="#FFFFFF" points="197.619,1101.229 111.184,1101.229 129.776,1130.983 
				216.211,1130.983 			"/>
		</g>
	</g>
	<g id="_x31_967">
		<g>
			<path fill-rule="evenodd" clip-rule="evenodd" fill="#CC2229" d="M132.144,1111.699h3.12v13.129h4.752v-16.801h-7.873V1111.699z
				 M149.88,1107.69c-3.648,0-6.577,2.232-6.577,5.736c0,3.216,2.617,5.304,5.785,5.304c1.584,0,2.832-0.432,3.768-1.224
				c-0.264,2.544-1.848,3.889-4.224,3.889c-1.08,0-2.136-0.192-3.096-0.865l-1.728,3.409c1.224,0.792,3.048,1.224,4.92,1.224
				c5.329,0,8.953-3.336,8.953-9.192C157.68,1110.522,154.608,1107.69,149.88,1107.69z M150.216,1115.323
				c-1.368,0-2.304-0.816-2.304-2.112c0-1.32,0.936-2.136,2.28-2.136c1.44,0,2.352,0.864,2.352,2.112
				C152.544,1114.459,151.584,1115.323,150.216,1115.323z M169.104,1114.123c-1.584,0-2.856,0.432-3.792,1.249
				c0.24-2.568,1.848-3.912,4.248-3.912c1.08,0,2.136,0.191,3.096,0.864l1.729-3.409c-1.224-0.792-3.048-1.224-4.944-1.224
				c-5.304,0-8.929,3.336-8.929,9.192c0,5.448,3.072,8.28,7.776,8.28c3.672,0,6.601-2.231,6.601-5.736
				C174.888,1116.211,172.272,1114.123,169.104,1114.123z M168,1121.779c-1.44,0-2.352-0.864-2.352-2.112
				c0-1.272,0.96-2.136,2.328-2.136s2.304,0.816,2.304,2.112C170.28,1120.963,169.344,1121.779,168,1121.779z M177.023,1108.026
				v6.36h4.056v-2.592h4.416l-5.664,13.033h5.184l5.929-13.825v-2.977H177.023z"/>
		</g>
	</g>
</g>
<g id="_x33_5_1_">
	<g id="Shape_1_14_">
		<g>
			<polygon fill-rule="evenodd" clip-rule="evenodd" fill="#FFFFFF" points="384.21,715.913 297.775,715.913 316.367,745.667 
				402.802,745.667 			"/>
		</g>
	</g>
	<g id="_x31_973">
		<g>
			<path fill-rule="evenodd" clip-rule="evenodd" fill="#CC2229" d="M318.734,726.382h3.12v13.128h4.752V722.71h-7.873V726.382z
				 M336.471,722.374c-3.648,0-6.576,2.232-6.576,5.736c0,3.216,2.616,5.304,5.784,5.304c1.584,0,2.832-0.432,3.768-1.224
				c-0.264,2.544-1.848,3.888-4.224,3.888c-1.08,0-2.136-0.192-3.096-0.864l-1.728,3.408c1.224,0.792,3.048,1.224,4.92,1.224
				c5.328,0,8.953-3.336,8.953-9.193C344.271,725.207,341.199,722.374,336.471,722.374z M336.807,730.006
				c-1.368,0-2.304-0.816-2.304-2.112c0-1.32,0.936-2.136,2.28-2.136c1.44,0,2.352,0.864,2.352,2.112
				C339.135,729.143,338.175,730.006,336.807,730.006z M346.838,729.07h4.056v-2.592h4.417l-5.665,13.032h5.185l5.928-13.824v-2.977
				h-13.921V729.07z M372.086,729.43l3.48-3.744v-2.977h-12.145v3.672h6.625l-3,3.24v3h1.992c1.824,0,2.568,0.624,2.568,1.632
				c0,1.128-1.056,1.752-2.664,1.752c-1.584,0-3.312-0.48-4.656-1.392l-1.728,3.576c1.728,1.081,4.2,1.656,6.528,1.656
				c5.064,0,7.321-2.736,7.321-5.592C376.407,731.854,374.918,730.03,372.086,729.43z"/>
		</g>
	</g>
</g>
<g id="_x33_6_1_">
	<g id="Shape_1_copy_12">
		<g>
			<polygon fill-rule="evenodd" clip-rule="evenodd" fill="#CC2229" points="238.701,383.869 220.108,413.624 306.543,413.624 
				325.136,383.869 			"/>
		</g>
	</g>
	<g id="_x32_015_1_">
		<g>
			<path fill-rule="evenodd" clip-rule="evenodd" fill="#FFFFFF" d="M252.472,400.208c2.4-2.208,2.856-3.696,2.856-5.329
				c0-3.12-2.664-5.112-6.528-5.112c-3.312,0-5.688,1.392-6.96,3.504l3.528,1.968c0.672-1.08,1.776-1.632,3-1.632
				c1.44,0,2.16,0.648,2.16,1.728c0,0.696-0.192,1.464-1.536,2.712l-6.289,5.88v2.977h13.081v-3.769h-6.48L252.472,400.208z
				 M265.792,389.768c-4.296,0-7.417,3.192-7.417,8.736s3.121,8.737,7.417,8.737c4.272,0,7.393-3.192,7.393-8.737
				S270.064,389.768,265.792,389.768z M265.792,403.353c-1.536,0-2.64-1.32-2.64-4.848s1.104-4.848,2.64-4.848
				c1.512,0,2.616,1.32,2.616,4.848S267.304,403.353,265.792,403.353z M275.343,393.776h3.121v13.129h4.752v-16.802h-7.873V393.776z
				 M293.224,396.224h-1.128l0.216-2.448h6.768v-3.672h-10.705l-0.84,9.817h4.56c2.568,0,3.264,0.672,3.264,1.704
				c0,1.128-1.08,1.776-2.688,1.776s-3.288-0.48-4.656-1.392l-1.704,3.576c1.704,1.08,4.176,1.656,6.504,1.656
				c5.064,0,7.32-2.736,7.32-5.737C300.136,398.528,298.192,396.224,293.224,396.224z"/>
		</g>
	</g>
</g>
<g id="_x33_7_1_">
	<g id="Shape_1_15_">
		<g>
			<polygon fill-rule="evenodd" clip-rule="evenodd" fill="#CC2229" points="814.419,527.149 727.984,527.149 746.577,556.903 
				833.011,556.903 			"/>
		</g>
	</g>
	<g id="_x31_975">
		<g>
			<path fill-rule="evenodd" clip-rule="evenodd" fill="#FFFFFF" d="M748.943,537.619h3.12v13.128h4.752v-16.801h-7.873V537.619z
				 M766.68,533.61c-3.648,0-6.577,2.232-6.577,5.736c0,3.216,2.616,5.304,5.784,5.304c1.584,0,2.832-0.432,3.768-1.224
				c-0.264,2.544-1.848,3.889-4.224,3.889c-1.081,0-2.137-0.192-3.097-0.864l-1.728,3.408c1.224,0.792,3.048,1.224,4.92,1.224
				c5.328,0,8.953-3.336,8.953-9.192C774.48,536.442,771.408,533.61,766.68,533.61z M767.016,541.243
				c-1.368,0-2.304-0.816-2.304-2.112c0-1.32,0.937-2.136,2.28-2.136c1.44,0,2.353,0.864,2.353,2.112
				C769.344,540.379,768.384,541.243,767.016,541.243z M777.047,540.307h4.057v-2.592h4.416l-5.664,13.032h5.184l5.928-13.825
				v-2.976h-13.921V540.307z M799.967,540.067h-1.128l0.216-2.448h6.769v-3.672h-10.705l-0.84,9.816h4.561
				c2.568,0,3.264,0.672,3.264,1.704c0,1.128-1.08,1.776-2.688,1.776c-1.608,0-3.289-0.48-4.657-1.392l-1.704,3.576
				c1.704,1.08,4.176,1.656,6.504,1.656c5.064,0,7.321-2.736,7.321-5.736C806.88,542.371,804.936,540.067,799.967,540.067z"/>
		</g>
	</g>
</g>
<g id="_x33_8_1_">
	<g id="Shape_1_16_">
		<g>
			<rect x="751.169" y="595.118" fill-rule="evenodd" clip-rule="evenodd" fill="#FFFFFF" width="95.079" height="29.755"/>
		</g>
	</g>
	<g id="_x32_000е_4_">
		<g>
			<path fill-rule="evenodd" clip-rule="evenodd" fill="#CC2229" d="M768.204,612.021c2.4-2.208,2.856-3.696,2.856-5.329
				c0-3.12-2.664-5.112-6.528-5.112c-3.312,0-5.688,1.392-6.96,3.504l3.528,1.968c0.672-1.08,1.776-1.632,3-1.632
				c1.44,0,2.16,0.648,2.16,1.729c0,0.696-0.192,1.464-1.536,2.712l-6.288,5.88v2.976h13.081v-3.768h-6.48L768.204,612.021z
				 M781.523,601.58c-4.296,0-7.417,3.192-7.417,8.736s3.12,8.736,7.417,8.736c4.272,0,7.392-3.192,7.392-8.736
				S785.795,601.58,781.523,601.58z M781.523,615.165c-1.536,0-2.64-1.32-2.64-4.848s1.104-4.849,2.64-4.849
				c1.512,0,2.616,1.32,2.616,4.849S783.035,615.165,781.523,615.165z M799.164,601.58c-4.296,0-7.417,3.192-7.417,8.736
				s3.121,8.736,7.417,8.736c4.272,0,7.392-3.192,7.392-8.736S803.436,601.58,799.164,601.58z M799.164,615.165
				c-1.536,0-2.641-1.32-2.641-4.848s1.104-4.849,2.641-4.849c1.512,0,2.616,1.32,2.616,4.849S800.675,615.165,799.164,615.165z
				 M816.803,601.58c-4.296,0-7.417,3.192-7.417,8.736s3.12,8.736,7.417,8.736c4.272,0,7.393-3.192,7.393-8.736
				S821.076,601.58,816.803,601.58z M816.803,615.165c-1.536,0-2.64-1.32-2.64-4.848s1.104-4.849,2.64-4.849
				c1.512,0,2.616,1.32,2.616,4.849S818.315,615.165,816.803,615.165z M840.923,612.237c0-4.297-3.12-6.745-6.96-6.745
				c-4.104,0-7.153,2.784-7.153,6.696c0,3.888,3,6.745,7.632,6.745c2.473,0,4.296-0.72,5.544-2.112l-2.4-2.496
				c-0.888,0.768-1.728,1.128-3,1.128c-1.68,0-2.809-0.768-3.192-2.088h9.457C840.875,613.004,840.923,612.573,840.923,612.237z
				 M831.323,610.964c0.264-1.368,1.249-2.232,2.664-2.232c1.417,0,2.424,0.864,2.665,2.232H831.323z"/>
		</g>
	</g>
</g>
<g id="_x33_9_1_">
	<g id="Shape_1_17_">
		<g>
			<rect x="859.726" y="542.639" fill-rule="evenodd" clip-rule="evenodd" fill="#CC2229" width="86.435" height="29.754"/>
		</g>
	</g>
	<g id="_x32_008_5_">
		<g>
			<path fill-rule="evenodd" clip-rule="evenodd" fill="#FFFFFF" d="M879.878,559.541c2.4-2.208,2.856-3.696,2.856-5.329
				c0-3.12-2.664-5.112-6.528-5.112c-3.312,0-5.688,1.392-6.96,3.504l3.528,1.968c0.672-1.08,1.775-1.632,3-1.632
				c1.439,0,2.16,0.648,2.16,1.728c0,0.696-0.192,1.464-1.536,2.712l-6.289,5.88v2.977h13.081v-3.769h-6.48L879.878,559.541z
				 M893.199,549.1c-4.296,0-7.416,3.192-7.416,8.736s3.12,8.737,7.416,8.737c4.272,0,7.393-3.192,7.393-8.737
				S897.471,549.1,893.199,549.1z M893.199,562.685c-1.536,0-2.64-1.32-2.64-4.849c0-3.528,1.104-4.848,2.64-4.848
				c1.512,0,2.616,1.32,2.616,4.848C895.815,561.365,894.71,562.685,893.199,562.685z M910.838,549.1
				c-4.296,0-7.416,3.192-7.416,8.736s3.12,8.737,7.416,8.737c4.272,0,7.393-3.192,7.393-8.737S915.111,549.1,910.838,549.1z
				 M910.838,562.685c-1.535,0-2.64-1.32-2.64-4.849c0-3.528,1.104-4.848,2.64-4.848c1.513,0,2.616,1.32,2.616,4.848
				C913.455,561.365,912.351,562.685,910.838,562.685z M929.655,555.532c-1.584,0-2.856,0.432-3.792,1.248
				c0.239-2.568,1.848-3.912,4.248-3.912c1.08,0,2.136,0.192,3.096,0.864l1.729-3.408c-1.224-0.792-3.048-1.224-4.944-1.224
				c-5.305,0-8.929,3.336-8.929,9.193c0,5.448,3.072,8.28,7.776,8.28c3.673,0,6.601-2.232,6.601-5.736
				C935.439,557.621,932.823,555.532,929.655,555.532z M928.551,563.189c-1.44,0-2.353-0.864-2.353-2.112
				c0-1.272,0.96-2.136,2.328-2.136s2.304,0.816,2.304,2.112C930.831,562.373,929.895,563.189,928.551,563.189z"/>
		</g>
	</g>
</g>
<g id="_x34_0_1_">
	<g id="Shape_1_18_">
		<g>
			<rect x="829.006" y="498.239" fill-rule="evenodd" clip-rule="evenodd" fill="#CC2229" width="86.435" height="29.754"/>
		</g>
	</g>
	<g id="_x32_009_2_">
		<g>
			<path fill-rule="evenodd" clip-rule="evenodd" fill="#FFFFFF" d="M849.159,515.141c2.4-2.208,2.856-3.696,2.856-5.328
				c0-3.12-2.664-5.112-6.528-5.112c-3.312,0-5.688,1.392-6.96,3.504l3.528,1.968c0.673-1.08,1.776-1.632,3.001-1.632
				c1.439,0,2.16,0.648,2.16,1.729c0,0.696-0.192,1.464-1.537,2.712l-6.288,5.88v2.976h13.081v-3.768h-6.48L849.159,515.141z
				 M862.479,504.7c-4.297,0-7.417,3.192-7.417,8.736s3.12,8.737,7.417,8.737c4.272,0,7.393-3.192,7.393-8.737
				S866.751,504.7,862.479,504.7z M862.479,518.285c-1.536,0-2.641-1.32-2.641-4.849s1.104-4.848,2.641-4.848
				c1.512,0,2.616,1.32,2.616,4.848S863.991,518.285,862.479,518.285z M880.119,504.7c-4.296,0-7.416,3.192-7.416,8.736
				s3.12,8.737,7.416,8.737c4.272,0,7.393-3.192,7.393-8.737S884.391,504.7,880.119,504.7z M880.119,518.285
				c-1.536,0-2.64-1.32-2.64-4.849s1.104-4.848,2.64-4.848c1.512,0,2.616,1.32,2.616,4.848S881.63,518.285,880.119,518.285z
				 M896.487,504.7c-3.648,0-6.577,2.232-6.577,5.736c0,3.216,2.616,5.304,5.785,5.304c1.584,0,2.832-0.432,3.768-1.224
				c-0.264,2.544-1.848,3.888-4.224,3.888c-1.08,0-2.137-0.192-3.097-0.864l-1.728,3.408c1.224,0.792,3.048,1.224,4.92,1.224
				c5.328,0,8.953-3.336,8.953-9.193C904.288,507.532,901.215,504.7,896.487,504.7z M896.823,512.333
				c-1.368,0-2.305-0.816-2.305-2.112c0-1.32,0.937-2.137,2.28-2.137c1.44,0,2.353,0.864,2.353,2.112
				C899.151,511.469,898.191,512.333,896.823,512.333z"/>
		</g>
	</g>
</g>
<g id="_x34_1_1_">
	<g id="Shape_1_copy_3">
		<g>
			<polygon fill-rule="evenodd" clip-rule="evenodd" fill="#CC2229" points="921.293,441.053 902.701,470.808 989.136,470.808 
				1007.728,441.053 			"/>
		</g>
	</g>
	<g id="_x32_016_1_">
		<g>
			<path fill-rule="evenodd" clip-rule="evenodd" fill="#FFFFFF" d="M934.937,457.001c2.4-2.208,2.856-3.696,2.856-5.329
				c0-3.12-2.664-5.112-6.528-5.112c-3.312,0-5.688,1.392-6.961,3.504l3.528,1.968c0.672-1.08,1.776-1.632,3-1.632
				c1.44,0,2.16,0.648,2.16,1.728c0,0.696-0.191,1.464-1.536,2.712l-6.288,5.88v2.977h13.081v-3.769h-6.48L934.937,457.001z
				 M948.256,446.56c-4.296,0-7.416,3.192-7.416,8.737c0,5.544,3.12,8.736,7.416,8.736c4.272,0,7.394-3.192,7.394-8.736
				C955.65,449.752,952.529,446.56,948.256,446.56z M948.256,460.145c-1.535,0-2.64-1.32-2.64-4.848s1.104-4.849,2.64-4.849
				c1.513,0,2.617,1.32,2.617,4.849S949.769,460.145,948.256,460.145z M957.808,450.568h3.12v13.129h4.753v-16.801h-7.873V450.568z
				 M977.993,452.992c-1.584,0-2.855,0.432-3.792,1.248c0.24-2.568,1.848-3.912,4.248-3.912c1.08,0,2.137,0.192,3.097,0.864
				l1.728-3.408c-1.224-0.792-3.048-1.224-4.944-1.224c-5.304,0-8.929,3.336-8.929,9.193c0,5.448,3.073,8.28,7.777,8.28
				c3.672,0,6.6-2.232,6.6-5.736C983.777,455.081,981.162,452.992,977.993,452.992z M976.889,460.649
				c-1.44,0-2.353-0.864-2.353-2.112c0-1.272,0.96-2.136,2.328-2.136s2.305,0.816,2.305,2.112
				C979.169,459.833,978.233,460.649,976.889,460.649z"/>
		</g>
	</g>
</g>
<g id="_x34_2_1_">
	<g id="Shape_5_copy_10">
		<g>
			<path fill-rule="evenodd" clip-rule="evenodd" fill="#CC2229" d="M1119.606,365.418h-67.773c-7.952,0-14.399,6.447-14.399,14.4
				v0.337c0,7.953,6.447,14.4,14.399,14.4h67.773c7.953,0,14.4-6.447,14.4-14.4v-0.337
				C1134.006,371.865,1127.559,365.418,1119.606,365.418z"/>
		</g>
	</g>
	<g id="_x31_986_2_">
		<g>
			<path fill-rule="evenodd" clip-rule="evenodd" fill="#FFFFFF" d="M1056.067,375.567h3.12v13.129h4.752v-16.801h-7.872V375.567z
				 M1073.803,371.559c-3.648,0-6.576,2.232-6.576,5.736c0,3.216,2.616,5.304,5.784,5.304c1.584,0,2.832-0.432,3.769-1.224
				c-0.265,2.544-1.849,3.888-4.225,3.888c-1.08,0-2.136-0.191-3.096-0.864l-1.729,3.408c1.224,0.792,3.048,1.224,4.92,1.224
				c5.329,0,8.953-3.336,8.953-9.192C1081.604,374.392,1078.532,371.559,1073.803,371.559z M1074.139,379.191
				c-1.368,0-2.304-0.816-2.304-2.112c0-1.32,0.936-2.136,2.279-2.136c1.44,0,2.353,0.864,2.353,2.112
				C1076.467,378.328,1075.507,379.191,1074.139,379.191z M1096.532,379.84c1.128-0.792,1.8-1.944,1.8-3.384
				c0-2.976-2.736-4.896-6.696-4.896c-3.961,0-6.696,1.92-6.696,4.896c0,1.44,0.672,2.592,1.8,3.384
				c-1.513,0.864-2.4,2.184-2.4,3.912c0,3.216,2.952,5.28,7.297,5.28c4.344,0,7.296-2.064,7.296-5.28
				C1098.931,382.023,1098.043,380.704,1096.532,379.84z M1091.635,374.896c1.176,0,2.016,0.647,2.016,1.776
				c0,1.104-0.815,1.752-2.016,1.752s-1.992-0.648-1.992-1.752C1089.643,375.543,1090.458,374.896,1091.635,374.896z
				 M1091.635,385.696c-1.513,0-2.521-0.792-2.521-2.088c0-1.296,1.008-2.088,2.521-2.088c1.512,0,2.52,0.792,2.52,2.088
				C1094.155,384.904,1093.147,385.696,1091.635,385.696z M1107.834,371.559c-3.648,0-6.576,2.232-6.576,5.736
				c0,3.216,2.616,5.304,5.784,5.304c1.584,0,2.832-0.432,3.769-1.224c-0.264,2.544-1.849,3.888-4.225,3.888
				c-1.08,0-2.136-0.191-3.096-0.864l-1.729,3.408c1.225,0.792,3.048,1.224,4.92,1.224c5.329,0,8.953-3.336,8.953-9.192
				C1115.635,374.392,1112.563,371.559,1107.834,371.559z M1108.17,379.191c-1.368,0-2.304-0.816-2.304-2.112
				c0-1.32,0.936-2.136,2.28-2.136c1.44,0,2.352,0.864,2.352,2.112C1110.499,378.328,1109.539,379.191,1108.17,379.191z"/>
		</g>
	</g>
</g>
<g id="_x34_3_1_">
	<g id="Shape_5_copy_7">
		<g>
			<path fill-rule="evenodd" clip-rule="evenodd" fill="#CC2229" d="M1488.006,680.298h-67.773c-7.953,0-14.4,6.447-14.4,14.4v0.338
				c0,7.953,6.447,14.4,14.4,14.4h67.773c7.953,0,14.4-6.447,14.4-14.4v-0.338C1502.407,686.745,1495.959,680.298,1488.006,680.298z
				"/>
		</g>
	</g>
	<g id="_x31_986_3_">
		<g>
			<path fill-rule="evenodd" clip-rule="evenodd" fill="#FFFFFF" d="M1423.027,689.248h3.12v13.128h4.752v-16.801h-7.872V689.248z
				 M1440.763,685.239c-3.648,0-6.576,2.232-6.576,5.736c0,3.216,2.616,5.304,5.784,5.304c1.584,0,2.832-0.432,3.769-1.224
				c-0.265,2.544-1.849,3.888-4.225,3.888c-1.08,0-2.136-0.192-3.096-0.864l-1.729,3.408c1.224,0.792,3.048,1.224,4.92,1.224
				c5.329,0,8.953-3.336,8.953-9.192C1448.564,688.071,1445.492,685.239,1440.763,685.239z M1441.099,692.872
				c-1.368,0-2.304-0.816-2.304-2.112c0-1.32,0.936-2.136,2.28-2.136c1.439,0,2.352,0.864,2.352,2.112
				C1443.427,692.008,1442.467,692.872,1441.099,692.872z M1463.491,693.52c1.129-0.792,1.801-1.944,1.801-3.384
				c0-2.976-2.736-4.896-6.696-4.896s-6.696,1.92-6.696,4.896c0,1.44,0.672,2.592,1.8,3.384c-1.513,0.864-2.4,2.184-2.4,3.912
				c0,3.216,2.952,5.28,7.297,5.28c4.344,0,7.296-2.064,7.296-5.28C1465.891,695.704,1465.003,694.384,1463.491,693.52z
				 M1458.595,688.575c1.176,0,2.016,0.648,2.016,1.776c0,1.104-0.815,1.752-2.016,1.752s-1.992-0.648-1.992-1.752
				C1456.603,689.223,1457.418,688.575,1458.595,688.575z M1458.595,699.376c-1.513,0-2.521-0.792-2.521-2.088
				c0-1.296,1.008-2.088,2.521-2.088c1.512,0,2.521,0.792,2.521,2.088C1461.116,698.584,1460.107,699.376,1458.595,699.376z
				 M1474.939,691.695h-1.128l0.215-2.448h6.77v-3.672h-10.705l-0.84,9.816h4.561c2.567,0,3.264,0.672,3.264,1.704
				c0,1.128-1.08,1.776-2.688,1.776c-1.607,0-3.288-0.48-4.655-1.392l-1.705,3.576c1.705,1.081,4.177,1.656,6.505,1.656
				c5.064,0,7.32-2.736,7.32-5.736C1481.851,694,1479.907,691.695,1474.939,691.695z"/>
		</g>
	</g>
</g>
<g id="_x34_4_1_">
	<g id="Shape_1_19_">
		<g>
			<rect x="1260.441" y="1209.114" fill-rule="evenodd" clip-rule="evenodd" fill="#CC2229" width="86.435" height="29.755"/>
		</g>
	</g>
	<g id="_x32_008_6_">
		<g>
			<path fill-rule="evenodd" clip-rule="evenodd" fill="#FFFFFF" d="M1280.594,1226.016c2.399-2.208,2.855-3.695,2.855-5.328
				c0-3.12-2.664-5.112-6.528-5.112c-3.312,0-5.688,1.393-6.96,3.505l3.528,1.968c0.672-1.08,1.775-1.632,3-1.632
				c1.439,0,2.16,0.647,2.16,1.728c0,0.696-0.192,1.464-1.536,2.713l-6.288,5.88v2.977h13.08v-3.769h-6.48L1280.594,1226.016z
				 M1293.914,1215.575c-4.296,0-7.416,3.192-7.416,8.737c0,5.544,3.12,8.736,7.416,8.736c4.272,0,7.393-3.192,7.393-8.736
				C1301.306,1218.768,1298.186,1215.575,1293.914,1215.575z M1293.914,1229.16c-1.536,0-2.64-1.32-2.64-4.848
				c0-3.528,1.104-4.849,2.64-4.849c1.512,0,2.616,1.32,2.616,4.849C1296.53,1227.84,1295.425,1229.16,1293.914,1229.16z
				 M1311.553,1215.575c-4.296,0-7.416,3.192-7.416,8.737c0,5.544,3.12,8.736,7.416,8.736c4.272,0,7.393-3.192,7.393-8.736
				C1318.946,1218.768,1315.826,1215.575,1311.553,1215.575z M1311.553,1229.16c-1.535,0-2.64-1.32-2.64-4.848
				c0-3.528,1.104-4.849,2.64-4.849c1.513,0,2.616,1.32,2.616,4.849C1314.169,1227.84,1313.066,1229.16,1311.553,1229.16z
				 M1321.513,1215.911v6.36h4.057v-2.592h4.416l-5.664,13.033h5.184l5.929-13.825v-2.977H1321.513z"/>
		</g>
	</g>
</g>
<g id="_x34_5_1_">
	<g id="Shape_1_copy_8">
		<g>
			<polygon fill-rule="evenodd" clip-rule="evenodd" fill="#CC2229" points="808.461,944.573 788.01,974.327 883.088,974.327 
				903.54,944.573 			"/>
		</g>
	</g>
	<g id="_x32_010е_1_">
		<g>
			<path fill-rule="evenodd" clip-rule="evenodd" fill="#FFFFFF" d="M817.427,961.29c2.4-2.208,2.856-3.696,2.856-5.328
				c0-3.12-2.664-5.112-6.529-5.112c-3.312,0-5.688,1.392-6.96,3.504l3.528,1.968c0.672-1.08,1.776-1.632,3-1.632
				c1.44,0,2.16,0.648,2.16,1.728c0,0.696-0.192,1.464-1.536,2.712l-6.289,5.88v2.977h13.081v-3.769h-6.48L817.427,961.29z
				 M830.747,950.849c-4.296,0-7.417,3.192-7.417,8.736s3.12,8.736,7.417,8.736c4.272,0,7.393-3.192,7.393-8.736
				S835.02,950.849,830.747,950.849z M830.747,964.434c-1.536,0-2.64-1.32-2.64-4.849s1.104-4.848,2.64-4.848
				c1.512,0,2.616,1.32,2.616,4.848S832.259,964.434,830.747,964.434z M840.298,954.857h3.121v13.129h4.752v-16.801h-7.873V954.857z
				 M859.307,950.849c-4.296,0-7.416,3.192-7.416,8.736s3.12,8.736,7.416,8.736c4.272,0,7.393-3.192,7.393-8.736
				S863.58,950.849,859.307,950.849z M859.307,964.434c-1.536,0-2.64-1.32-2.64-4.849s1.104-4.848,2.64-4.848
				c1.512,0,2.616,1.32,2.616,4.848S860.819,964.434,859.307,964.434z M883.427,961.506c0-4.296-3.12-6.745-6.96-6.745
				c-4.104,0-7.152,2.784-7.152,6.696c0,3.888,3,6.745,7.632,6.745c2.473,0,4.297-0.72,5.545-2.112l-2.4-2.496
				c-0.888,0.768-1.729,1.128-3,1.128c-1.681,0-2.809-0.768-3.192-2.088h9.457C883.379,962.273,883.427,961.842,883.427,961.506z
				 M873.827,960.233c0.265-1.368,1.248-2.232,2.664-2.232s2.425,0.865,2.664,2.232H873.827z"/>
		</g>
	</g>
</g>
<g id="_x34_6_1_">
	<g id="Shape_1_20_">
		<g>
			<rect x="239.881" y="585.447" fill-rule="evenodd" clip-rule="evenodd" fill="#CC2229" width="86.435" height="29.754"/>
		</g>
	</g>
	<g id="_x32_008_7_">
		<g>
			<path fill-rule="evenodd" clip-rule="evenodd" fill="#FFFFFF" d="M262.434,602.349c2.4-2.208,2.856-3.696,2.856-5.328
				c0-3.12-2.664-5.112-6.528-5.112c-3.312,0-5.688,1.392-6.96,3.504l3.528,1.968c0.672-1.08,1.776-1.632,3-1.632
				c1.44,0,2.16,0.648,2.16,1.728c0,0.696-0.192,1.464-1.536,2.712l-6.288,5.88v2.976h13.081v-3.768h-6.48L262.434,602.349z
				 M275.754,591.908c-4.296,0-7.417,3.192-7.417,8.736c0,5.544,3.12,8.736,7.417,8.736c4.272,0,7.393-3.192,7.393-8.736
				C283.146,595.101,280.026,591.908,275.754,591.908z M275.754,605.493c-1.536,0-2.64-1.32-2.64-4.848s1.104-4.848,2.64-4.848
				c1.512,0,2.616,1.32,2.616,4.848S277.266,605.493,275.754,605.493z M293.394,591.908c-4.296,0-7.417,3.192-7.417,8.736
				c0,5.544,3.121,8.736,7.417,8.736c4.272,0,7.392-3.192,7.392-8.736C300.786,595.101,297.666,591.908,293.394,591.908z
				 M293.394,605.493c-1.536,0-2.641-1.32-2.641-4.848s1.104-4.848,2.641-4.848c1.512,0,2.616,1.32,2.616,4.848
				S294.906,605.493,293.394,605.493z M302.945,592.244v3.672h3.12v13.129h4.752v-16.801H302.945z"/>
		</g>
	</g>
</g>
<g id="_x34_7_1_">
	<g id="Shape_1_copy_2">
		<g>
			<polygon fill-rule="evenodd" clip-rule="evenodd" fill="#CC2229" points="419.901,554.509 401.309,584.264 487.744,584.264 
				506.336,554.509 			"/>
		</g>
	</g>
	<g id="_x32_016_2_">
		<g>
			<path fill-rule="evenodd" clip-rule="evenodd" fill="#FFFFFF" d="M432.463,570.623c2.4-2.208,2.856-3.696,2.856-5.329
				c0-3.12-2.665-5.112-6.529-5.112c-3.312,0-5.688,1.392-6.96,3.504l3.528,1.968c0.672-1.08,1.776-1.632,3-1.632
				c1.44,0,2.16,0.648,2.16,1.728c0,0.696-0.192,1.464-1.536,2.712l-6.288,5.88v2.976h13.081v-3.768h-6.48L432.463,570.623z
				 M445.783,560.182c-4.296,0-7.417,3.192-7.417,8.736s3.12,8.736,7.417,8.736c4.272,0,7.393-3.192,7.393-8.736
				S450.056,560.182,445.783,560.182z M445.783,573.767c-1.536,0-2.64-1.32-2.64-4.848s1.104-4.848,2.64-4.848
				c1.512,0,2.616,1.32,2.616,4.848S447.295,573.767,445.783,573.767z M455.334,564.19h3.12v13.128h4.752v-16.801h-7.873V564.19z
				 M475.519,566.614c-1.584,0-2.856,0.432-3.792,1.248c0.24-2.568,1.848-3.912,4.248-3.912c1.08,0,2.136,0.192,3.096,0.864
				l1.728-3.409c-1.224-0.792-3.048-1.224-4.944-1.224c-5.305,0-8.929,3.336-8.929,9.192c0,5.448,3.072,8.28,7.776,8.28
				c3.672,0,6.601-2.232,6.601-5.736C481.304,568.703,478.688,566.614,475.519,566.614z M474.415,574.271
				c-1.44,0-2.352-0.864-2.352-2.112c0-1.272,0.96-2.136,2.328-2.136s2.304,0.816,2.304,2.112
				C476.695,573.455,475.759,574.271,474.415,574.271z"/>
		</g>
	</g>
</g>
<g id="_x34_8_1_">
	<g id="Shape_1_21_">
		<g>
			<rect x="626.927" y="1350.588" fill-rule="evenodd" clip-rule="evenodd" fill="#FFFFFF" width="95.078" height="29.754"/>
		</g>
	</g>
	<g id="_x32_000е_5_">
		<g>
			<path fill-rule="evenodd" clip-rule="evenodd" fill="#CC2229" d="M643.961,1367.49c2.4-2.209,2.856-3.697,2.856-5.329
				c0-3.12-2.664-5.112-6.528-5.112c-3.312,0-5.688,1.393-6.96,3.505l3.528,1.968c0.672-1.08,1.776-1.632,3-1.632
				c1.44,0,2.16,0.647,2.16,1.728c0,0.696-0.192,1.464-1.536,2.712l-6.289,5.881v2.976h13.081v-3.768h-6.48L643.961,1367.49z
				 M657.281,1357.049c-4.296,0-7.416,3.192-7.416,8.736c0,5.545,3.12,8.737,7.416,8.737c4.272,0,7.393-3.192,7.393-8.737
				C664.674,1360.241,661.554,1357.049,657.281,1357.049z M657.281,1370.634c-1.536,0-2.64-1.32-2.64-4.849
				c0-3.527,1.104-4.848,2.64-4.848c1.512,0,2.617,1.32,2.617,4.848C659.898,1369.313,658.793,1370.634,657.281,1370.634z
				 M674.921,1357.049c-4.296,0-7.417,3.192-7.417,8.736c0,5.545,3.12,8.737,7.417,8.737c4.272,0,7.393-3.192,7.393-8.737
				C682.314,1360.241,679.194,1357.049,674.921,1357.049z M674.921,1370.634c-1.536,0-2.64-1.32-2.64-4.849
				c0-3.527,1.104-4.848,2.64-4.848c1.512,0,2.616,1.32,2.616,4.848C677.538,1369.313,676.434,1370.634,674.921,1370.634z
				 M692.561,1357.049c-4.296,0-7.416,3.192-7.416,8.736c0,5.545,3.12,8.737,7.416,8.737c4.272,0,7.393-3.192,7.393-8.737
				C699.954,1360.241,696.833,1357.049,692.561,1357.049z M692.561,1370.634c-1.536,0-2.64-1.32-2.64-4.849
				c0-3.527,1.104-4.848,2.64-4.848c1.512,0,2.616,1.32,2.616,4.848C695.177,1369.313,694.073,1370.634,692.561,1370.634z
				 M716.682,1367.705c0-4.296-3.12-6.744-6.96-6.744c-4.104,0-7.152,2.785-7.152,6.697c0,3.888,3,6.744,7.632,6.744
				c2.472,0,4.296-0.721,5.544-2.112l-2.4-2.496c-0.888,0.768-1.729,1.128-3,1.128c-1.68,0-2.808-0.768-3.192-2.088h9.457
				C716.634,1368.474,716.682,1368.042,716.682,1367.705z M707.081,1366.434c0.264-1.368,1.248-2.232,2.664-2.232
				c1.417,0,2.424,0.864,2.665,2.232H707.081z"/>
		</g>
	</g>
</g>
<g id="_x34_9_1_">
	<g id="Shape_1_22_">
		<g>
			<rect x="759.601" y="1807.438" fill-rule="evenodd" clip-rule="evenodd" fill="#CC2229" width="86.397" height="29.763"/>
		</g>
	</g>
	<g id="_x32_005">
		<g>
			<path fill-rule="evenodd" clip-rule="evenodd" fill="#FFFFFF" d="M782.54,1823.314c2.4-2.208,2.856-3.696,2.856-5.328
				c0-3.12-2.664-5.112-6.528-5.112c-3.312,0-5.689,1.392-6.961,3.504l3.528,1.968c0.672-1.08,1.776-1.632,3-1.632
				c1.44,0,2.16,0.648,2.16,1.729c0,0.695-0.192,1.464-1.536,2.712l-6.289,5.881v2.976h13.081v-3.769h-6.48L782.54,1823.314z
				 M794.875,1812.874c-4.296,0-7.417,3.192-7.417,8.736s3.121,8.736,7.417,8.736c4.272,0,7.393-3.192,7.393-8.736
				S799.148,1812.874,794.875,1812.874z M794.875,1826.459c-1.536,0-2.64-1.32-2.64-4.849s1.104-4.849,2.64-4.849
				c1.512,0,2.616,1.32,2.616,4.849S796.388,1826.459,794.875,1826.459z M811.556,1812.874c-4.296,0-7.417,3.192-7.417,8.736
				s3.12,8.736,7.417,8.736c4.272,0,7.392-3.192,7.392-8.736S815.828,1812.874,811.556,1812.874z M811.556,1826.459
				c-1.536,0-2.64-1.32-2.64-4.849s1.104-4.849,2.64-4.849c1.512,0,2.616,1.32,2.616,4.849S813.068,1826.459,811.556,1826.459z
				 M827.107,1819.33h-1.128l0.216-2.448h6.769v-3.672h-10.705l-0.84,9.816h4.561c2.568,0,3.264,0.672,3.264,1.704
				c0,1.128-1.08,1.776-2.688,1.776c-1.608,0-3.289-0.48-4.657-1.393l-1.704,3.576c1.704,1.081,4.177,1.656,6.504,1.656
				c5.064,0,7.321-2.736,7.321-5.736C834.02,1821.635,832.076,1819.33,827.107,1819.33z"/>
		</g>
	</g>
</g>
</svg>
